<svg width="72" height="72" viewBox="0 0 72 72" fill="none" xmlns="http://www.w3.org/2000/svg">
<rect x="4.71094" y="13.5703" width="62.5781" height="44.8594" rx="3.9375" fill="url(#paint0_linear_65_1617)"/>
<rect x="4.71094" y="13.5703" width="62.5781" height="44.8594" rx="3.9375" fill="url(#paint1_linear_65_1617)"/>
<path d="M36 13.5703V58.4297H8.64844C6.47383 58.4297 4.71094 56.6668 4.71094 54.4922V17.5078C4.71094 15.3332 6.47383 13.5703 8.64844 13.5703H36Z" fill="url(#paint2_linear_65_1617)"/>
<path d="M36 13.5703V58.4297H8.64844C6.47383 58.4297 4.71094 56.6668 4.71094 54.4922V17.5078C4.71094 15.3332 6.47383 13.5703 8.64844 13.5703H36Z" fill="url(#paint3_radial_65_1617)"/>
<path d="M36 13.5703V58.4297H63.3516C65.5262 58.4297 67.2891 56.6668 67.2891 54.4922V17.5078C67.2891 15.3332 65.5262 13.5703 63.3516 13.5703H36Z" fill="url(#paint4_linear_65_1617)"/>
<path d="M36 13.5703V58.4297H63.3516C65.5262 58.4297 67.2891 56.6668 67.2891 54.4922V17.5078C67.2891 15.3332 65.5262 13.5703 63.3516 13.5703H36Z" fill="url(#paint5_linear_65_1617)"/>
<path d="M36 13.5703V58.4297H63.3516C65.5262 58.4297 67.2891 56.6668 67.2891 54.4922V17.5078C67.2891 15.3332 65.5262 13.5703 63.3516 13.5703H36Z" fill="url(#paint6_linear_65_1617)"/>
<path d="M36 13.5703V58.4297H63.3516C65.5262 58.4297 67.2891 56.6668 67.2891 54.4922V17.5078C67.2891 15.3332 65.5262 13.5703 63.3516 13.5703H36Z" fill="url(#paint7_linear_65_1617)"/>
<g filter="url(#filter0_i_65_1617)">
<path d="M4.71094 54.4922C4.71094 53.9016 5.01514 53.3528 5.51591 53.0397L35.5048 34.2946C35.7969 34.1121 36.1678 34.1123 36.4598 34.2953L66.5485 53.1541C67.0093 53.4429 67.2891 53.9484 67.2891 54.4922V54.4922C67.2891 56.6668 65.5262 58.4297 63.3516 58.4297H8.64844C6.47383 58.4297 4.71094 56.6668 4.71094 54.4922V54.4922Z" fill="url(#paint8_linear_65_1617)"/>
</g>
<path d="M4.71094 54.4922C4.71094 53.9016 5.01514 53.3528 5.51591 53.0397L35.5048 34.2946C35.7969 34.1121 36.1678 34.1123 36.4598 34.2953L66.5485 53.1541C67.0093 53.4429 67.2891 53.9484 67.2891 54.4922V54.4922C67.2891 56.6668 65.5262 58.4297 63.3516 58.4297H8.64844C6.47383 58.4297 4.71094 56.6668 4.71094 54.4922V54.4922Z" fill="url(#paint9_linear_65_1617)"/>
<path d="M4.71094 54.4922C4.71094 53.9016 5.01514 53.3528 5.51591 53.0397L35.5048 34.2946C35.7969 34.1121 36.1678 34.1123 36.4598 34.2953L66.5485 53.1541C67.0093 53.4429 67.2891 53.9484 67.2891 54.4922V54.4922C67.2891 56.6668 65.5262 58.4297 63.3516 58.4297H8.64844C6.47383 58.4297 4.71094 56.6668 4.71094 54.4922V54.4922Z" fill="url(#paint10_linear_65_1617)"/>
<g filter="url(#filter1_ii_65_1617)">
<path d="M4.71094 17.5078C4.71094 18.0984 5.01514 18.6472 5.51591 18.9603L35.5048 37.7054C35.7969 37.8879 36.1678 37.8877 36.4598 37.7047L66.5485 18.8459C67.0093 18.5571 67.2891 18.0516 67.2891 17.5078V17.5078C67.2891 15.3332 65.5262 13.5703 63.3516 13.5703H8.64844C6.47383 13.5703 4.71094 15.3332 4.71094 17.5078V17.5078Z" fill="url(#paint11_linear_65_1617)"/>
<path d="M4.71094 17.5078C4.71094 18.0984 5.01514 18.6472 5.51591 18.9603L35.5048 37.7054C35.7969 37.8879 36.1678 37.8877 36.4598 37.7047L66.5485 18.8459C67.0093 18.5571 67.2891 18.0516 67.2891 17.5078V17.5078C67.2891 15.3332 65.5262 13.5703 63.3516 13.5703H8.64844C6.47383 13.5703 4.71094 15.3332 4.71094 17.5078V17.5078Z" fill="url(#paint12_linear_65_1617)"/>
<path d="M4.71094 17.5078C4.71094 18.0984 5.01514 18.6472 5.51591 18.9603L35.5048 37.7054C35.7969 37.8879 36.1678 37.8877 36.4598 37.7047L66.5485 18.8459C67.0093 18.5571 67.2891 18.0516 67.2891 17.5078V17.5078C67.2891 15.3332 65.5262 13.5703 63.3516 13.5703H8.64844C6.47383 13.5703 4.71094 15.3332 4.71094 17.5078V17.5078Z" fill="url(#paint13_linear_65_1617)"/>
<path d="M4.71094 17.5078C4.71094 18.0984 5.01514 18.6472 5.51591 18.9603L35.5048 37.7054C35.7969 37.8879 36.1678 37.8877 36.4598 37.7047L66.5485 18.8459C67.0093 18.5571 67.2891 18.0516 67.2891 17.5078V17.5078C67.2891 15.3332 65.5262 13.5703 63.3516 13.5703H8.64844C6.47383 13.5703 4.71094 15.3332 4.71094 17.5078V17.5078Z" fill="url(#paint14_radial_65_1617)"/>
</g>
<g filter="url(#filter2_f_65_1617)">
<path d="M34.4901 52.8119C43.1885 52.8119 50.2401 45.7604 50.2401 37.0619C50.2401 28.3635 43.1885 21.3119 34.4901 21.3119C25.7916 21.3119 18.7401 28.3635 18.7401 37.0619C18.7401 45.7604 25.7916 52.8119 34.4901 52.8119Z" fill="#C2A5D0"/>
</g>
<g filter="url(#filter3_iii_65_1617)">
<path d="M35.8945 51.75C44.593 51.75 51.6445 44.6985 51.6445 36C51.6445 27.3015 44.593 20.25 35.8945 20.25C27.196 20.25 20.1445 27.3015 20.1445 36C20.1445 44.6985 27.196 51.75 35.8945 51.75Z" fill="url(#paint15_linear_65_1617)"/>
</g>
<g filter="url(#filter4_dii_65_1617)">
<path d="M35.8945 25.875C33.172 25.83 30.5845 26.865 28.6495 28.8C26.692 30.7125 25.6345 33.2775 25.6345 36C25.6345 41.58 30.1795 46.125 35.7595 46.125C36.3445 46.125 36.817 45.6525 36.817 45.0675C36.817 44.4825 36.3445 44.01 35.7595 44.01C31.3495 44.01 27.7495 40.41 27.7495 36C27.7495 33.84 28.6045 31.815 30.1345 30.3075C31.6645 28.8 33.712 27.99 35.872 27.99C40.2145 28.0575 43.7695 31.7025 43.7695 36.135V37.9575C43.7695 38.79 43.0945 39.465 42.262 39.465C41.4295 39.465 40.7545 38.79 40.7545 37.9575V31.0275C40.7545 30.4425 40.282 29.97 39.697 29.97C39.112 29.97 38.5945 30.4425 38.5945 31.0275V31.23C37.6045 30.4425 36.367 29.9475 34.9945 29.9475C31.8445 29.9475 29.2795 32.5125 29.2795 35.6625C29.2795 38.8125 31.8445 41.3775 34.9945 41.3775C36.5695 41.3775 38.0095 40.725 39.0445 39.69C39.6745 40.815 40.867 41.58 42.2395 41.58C44.242 41.58 45.8845 39.9375 45.8845 37.935V36.1125C45.8845 30.555 41.407 25.9425 35.8945 25.875ZM35.017 39.285C33.037 39.285 31.417 37.665 31.417 35.685C31.417 33.705 33.037 32.085 35.017 32.085C36.997 32.085 38.617 33.705 38.617 35.685C38.617 37.665 36.997 39.285 35.017 39.285Z" fill="#E6E0ED"/>
</g>
<defs>
<filter id="filter0_i_65_1617" x="4.71094" y="32.4704" width="62.5781" height="25.9593" filterUnits="userSpaceOnUse" color-interpolation-filters="sRGB">
<feFlood flood-opacity="0" result="BackgroundImageFix"/>
<feBlend mode="normal" in="SourceGraphic" in2="BackgroundImageFix" result="shape"/>
<feColorMatrix in="SourceAlpha" type="matrix" values="0 0 0 0 0 0 0 0 0 0 0 0 0 0 0 0 0 0 127 0" result="hardAlpha"/>
<feOffset dy="-1.6875"/>
<feGaussianBlur stdDeviation="1.6875"/>
<feComposite in2="hardAlpha" operator="arithmetic" k2="-1" k3="1"/>
<feColorMatrix type="matrix" values="0 0 0 0 0.819608 0 0 0 0 0.654902 0 0 0 0 0.933333 0 0 0 1 0"/>
<feBlend mode="normal" in2="shape" result="effect1_innerShadow_65_1617"/>
</filter>
<filter id="filter1_ii_65_1617" x="4.71094" y="13.2328" width="62.5781" height="25.1718" filterUnits="userSpaceOnUse" color-interpolation-filters="sRGB">
<feFlood flood-opacity="0" result="BackgroundImageFix"/>
<feBlend mode="normal" in="SourceGraphic" in2="BackgroundImageFix" result="shape"/>
<feColorMatrix in="SourceAlpha" type="matrix" values="0 0 0 0 0 0 0 0 0 0 0 0 0 0 0 0 0 0 127 0" result="hardAlpha"/>
<feOffset dy="-0.3375"/>
<feGaussianBlur stdDeviation="0.50625"/>
<feComposite in2="hardAlpha" operator="arithmetic" k2="-1" k3="1"/>
<feColorMatrix type="matrix" values="0 0 0 0 0.827451 0 0 0 0 0.686275 0 0 0 0 0.913725 0 0 0 1 0"/>
<feBlend mode="normal" in2="shape" result="effect1_innerShadow_65_1617"/>
<feColorMatrix in="SourceAlpha" type="matrix" values="0 0 0 0 0 0 0 0 0 0 0 0 0 0 0 0 0 0 127 0" result="hardAlpha"/>
<feOffset dy="0.5625"/>
<feGaussianBlur stdDeviation="0.675"/>
<feComposite in2="hardAlpha" operator="arithmetic" k2="-1" k3="1"/>
<feColorMatrix type="matrix" values="0 0 0 0 0.870588 0 0 0 0 0.858824 0 0 0 0 0.854902 0 0 0 1 0"/>
<feBlend mode="normal" in2="effect1_innerShadow_65_1617" result="effect2_innerShadow_65_1617"/>
</filter>
<filter id="filter2_f_65_1617" x="15.3651" y="17.9369" width="38.25" height="38.25" filterUnits="userSpaceOnUse" color-interpolation-filters="sRGB">
<feFlood flood-opacity="0" result="BackgroundImageFix"/>
<feBlend mode="normal" in="SourceGraphic" in2="BackgroundImageFix" result="shape"/>
<feGaussianBlur stdDeviation="1.6875" result="effect1_foregroundBlur_65_1617"/>
</filter>
<filter id="filter3_iii_65_1617" x="19.807" y="19.6875" width="32.4" height="32.625" filterUnits="userSpaceOnUse" color-interpolation-filters="sRGB">
<feFlood flood-opacity="0" result="BackgroundImageFix"/>
<feBlend mode="normal" in="SourceGraphic" in2="BackgroundImageFix" result="shape"/>
<feColorMatrix in="SourceAlpha" type="matrix" values="0 0 0 0 0 0 0 0 0 0 0 0 0 0 0 0 0 0 127 0" result="hardAlpha"/>
<feOffset dx="0.5625"/>
<feGaussianBlur stdDeviation="0.28125"/>
<feComposite in2="hardAlpha" operator="arithmetic" k2="-1" k3="1"/>
<feColorMatrix type="matrix" values="0 0 0 0 0.192157 0 0 0 0 0.376471 0 0 0 0 0.721569 0 0 0 1 0"/>
<feBlend mode="normal" in2="shape" result="effect1_innerShadow_65_1617"/>
<feColorMatrix in="SourceAlpha" type="matrix" values="0 0 0 0 0 0 0 0 0 0 0 0 0 0 0 0 0 0 127 0" result="hardAlpha"/>
<feOffset dy="-0.5625"/>
<feGaussianBlur stdDeviation="0.28125"/>
<feComposite in2="hardAlpha" operator="arithmetic" k2="-1" k3="1"/>
<feColorMatrix type="matrix" values="0 0 0 0 0.32549 0 0 0 0 0.341176 0 0 0 0 0.819608 0 0 0 1 0"/>
<feBlend mode="normal" in2="effect1_innerShadow_65_1617" result="effect2_innerShadow_65_1617"/>
<feColorMatrix in="SourceAlpha" type="matrix" values="0 0 0 0 0 0 0 0 0 0 0 0 0 0 0 0 0 0 127 0" result="hardAlpha"/>
<feOffset dx="-0.3375" dy="0.5625"/>
<feGaussianBlur stdDeviation="0.28125"/>
<feComposite in2="hardAlpha" operator="arithmetic" k2="-1" k3="1"/>
<feColorMatrix type="matrix" values="0 0 0 0 0.317647 0 0 0 0 0.596078 0 0 0 0 0.882353 0 0 0 1 0"/>
<feBlend mode="normal" in2="effect2_innerShadow_65_1617" result="effect3_innerShadow_65_1617"/>
</filter>
<filter id="filter4_dii_65_1617" x="24.7345" y="25.3111" width="21.375" height="21.7139" filterUnits="userSpaceOnUse" color-interpolation-filters="sRGB">
<feFlood flood-opacity="0" result="BackgroundImageFix"/>
<feColorMatrix in="SourceAlpha" type="matrix" values="0 0 0 0 0 0 0 0 0 0 0 0 0 0 0 0 0 0 127 0" result="hardAlpha"/>
<feOffset dx="-0.3375" dy="0.3375"/>
<feGaussianBlur stdDeviation="0.28125"/>
<feComposite in2="hardAlpha" operator="out"/>
<feColorMatrix type="matrix" values="0 0 0 0 0.152941 0 0 0 0 0.341176 0 0 0 0 0.768627 0 0 0 1 0"/>
<feBlend mode="normal" in2="BackgroundImageFix" result="effect1_dropShadow_65_1617"/>
<feBlend mode="normal" in="SourceGraphic" in2="effect1_dropShadow_65_1617" result="shape"/>
<feColorMatrix in="SourceAlpha" type="matrix" values="0 0 0 0 0 0 0 0 0 0 0 0 0 0 0 0 0 0 127 0" result="hardAlpha"/>
<feOffset dy="-0.5625"/>
<feGaussianBlur stdDeviation="0.45"/>
<feComposite in2="hardAlpha" operator="arithmetic" k2="-1" k3="1"/>
<feColorMatrix type="matrix" values="0 0 0 0 0.803922 0 0 0 0 0.713726 0 0 0 0 0.921569 0 0 0 1 0"/>
<feBlend mode="normal" in2="shape" result="effect2_innerShadow_65_1617"/>
<feColorMatrix in="SourceAlpha" type="matrix" values="0 0 0 0 0 0 0 0 0 0 0 0 0 0 0 0 0 0 127 0" result="hardAlpha"/>
<feOffset dx="-0.3375" dy="0.3375"/>
<feGaussianBlur stdDeviation="0.3375"/>
<feComposite in2="hardAlpha" operator="arithmetic" k2="-1" k3="1"/>
<feColorMatrix type="matrix" values="0 0 0 0 0.917647 0 0 0 0 0.890196 0 0 0 0 0.952941 0 0 0 1 0"/>
<feBlend mode="normal" in2="effect2_innerShadow_65_1617" result="effect3_innerShadow_65_1617"/>
</filter>
<linearGradient id="paint0_linear_65_1617" x1="9.21094" y1="38.6016" x2="67.2891" y2="38.1797" gradientUnits="userSpaceOnUse">
<stop stop-color="#DFD0E6"/>
<stop offset="1" stop-color="#EEE5F8"/>
</linearGradient>
<linearGradient id="paint1_linear_65_1617" x1="4.71094" y1="38.4637" x2="11.5469" y2="38.4637" gradientUnits="userSpaceOnUse">
<stop stop-color="#D6BABD"/>
<stop offset="1" stop-color="#DCC9DD" stop-opacity="0"/>
</linearGradient>
<linearGradient id="paint2_linear_65_1617" x1="24.3841" y1="42.6897" x2="22.6698" y2="40.0186" gradientUnits="userSpaceOnUse">
<stop offset="0.113759" stop-color="#DAC3DF"/>
<stop offset="1" stop-color="#DAC3DF" stop-opacity="0"/>
</linearGradient>
<radialGradient id="paint3_radial_65_1617" cx="0" cy="0" r="1" gradientUnits="userSpaceOnUse" gradientTransform="translate(27.2782 30.1065) rotate(123.69) scale(6.13176 43.0638)">
<stop offset="0.342267" stop-color="#C8A6D7"/>
<stop offset="1" stop-color="#D1BBDD" stop-opacity="0"/>
</radialGradient>
<linearGradient id="paint4_linear_65_1617" x1="47.4609" y1="43.3828" x2="49.3302" y2="40.0186" gradientUnits="userSpaceOnUse">
<stop offset="0.113759" stop-color="#F6EFFE"/>
<stop offset="1" stop-color="#F3EAFD" stop-opacity="0"/>
</linearGradient>
<linearGradient id="paint5_linear_65_1617" x1="45.3516" y1="31.3594" x2="47.7422" y2="34.5938" gradientUnits="userSpaceOnUse">
<stop stop-color="#E3CDF7"/>
<stop offset="1" stop-color="#E9D9F8" stop-opacity="0"/>
</linearGradient>
<linearGradient id="paint6_linear_65_1617" x1="67.7109" y1="44.0156" x2="59.3437" y2="44.0156" gradientUnits="userSpaceOnUse">
<stop stop-color="#F7F3FB"/>
<stop offset="1" stop-color="#F0E9F8" stop-opacity="0"/>
</linearGradient>
<linearGradient id="paint7_linear_65_1617" x1="67.7109" y1="44.0156" x2="64.954" y2="44.0156" gradientUnits="userSpaceOnUse">
<stop offset="0.199295" stop-color="#EBE9ED"/>
<stop offset="1" stop-color="#EBE9ED" stop-opacity="0"/>
</linearGradient>
<linearGradient id="paint8_linear_65_1617" x1="36" y1="62.3672" x2="36" y2="38.0391" gradientUnits="userSpaceOnUse">
<stop stop-color="#DDC5F1"/>
<stop offset="1" stop-color="#E6DAF1"/>
</linearGradient>
<linearGradient id="paint9_linear_65_1617" x1="16.8437" y1="45.2394" x2="17.8704" y2="46.7795" gradientUnits="userSpaceOnUse">
<stop offset="0.0734082" stop-color="#DDC2C8"/>
<stop offset="1" stop-color="#DFCDDA" stop-opacity="0"/>
</linearGradient>
<linearGradient id="paint10_linear_65_1617" x1="50.8068" y1="43.1068" x2="50.1615" y2="44.1135" gradientUnits="userSpaceOnUse">
<stop offset="0.139796" stop-color="#F8F3FD"/>
<stop offset="1" stop-color="#F1EAF9" stop-opacity="0"/>
</linearGradient>
<linearGradient id="paint11_linear_65_1617" x1="36" y1="13.5703" x2="36" y2="37.8421" gradientUnits="userSpaceOnUse">
<stop stop-color="#E9E4E9"/>
<stop offset="1" stop-color="#E7DCF0"/>
</linearGradient>
<linearGradient id="paint12_linear_65_1617" x1="22.0718" y1="28.9754" x2="30.2047" y2="14.384" gradientUnits="userSpaceOnUse">
<stop stop-color="#E1D5E7"/>
<stop offset="1" stop-color="#E1D5E7" stop-opacity="0"/>
</linearGradient>
<linearGradient id="paint13_linear_65_1617" x1="4.71094" y1="17.2544" x2="11.3077" y2="17.2544" gradientUnits="userSpaceOnUse">
<stop stop-color="#E1C1BC"/>
<stop offset="1" stop-color="#E1C1BC" stop-opacity="0"/>
<stop offset="1" stop-color="#E9D1CD" stop-opacity="0"/>
</linearGradient>
<radialGradient id="paint14_radial_65_1617" cx="0" cy="0" r="1" gradientUnits="userSpaceOnUse" gradientTransform="translate(61.7795 22.7561) rotate(-138.233) scale(13.7904 61.1053)">
<stop stop-color="#FBF9FE"/>
<stop offset="1" stop-color="#F0ECF1" stop-opacity="0"/>
</radialGradient>
<linearGradient id="paint15_linear_65_1617" x1="50.4844" y1="32.1328" x2="24.0469" y2="41.8359" gradientUnits="userSpaceOnUse">
<stop stop-color="#347BD7"/>
<stop offset="1" stop-color="#3477CB"/>
</linearGradient>
</defs>
</svg>
