<svg width="72" height="72" viewBox="0 0 72 72" fill="none" xmlns="http://www.w3.org/2000/svg">
<g clip-path="url(#clip0_84_988)">
<path d="M30.069 35.6525L59.0465 66.2873C60.5172 67.8422 62.9931 68.0216 64.6313 66.5783C66.326 65.0814 66.4525 62.4935 64.9155 60.8686L35.8717 30.1637C34.3612 28.5668 33.7069 26.3725 34.0125 24.1725C34.6487 19.4303 32.7362 13.808 28.4962 9.32549C22.017 2.47573 12.5525 0.918093 7.35835 5.83123C2.16421 10.7444 3.19358 20.2808 9.67277 27.1306C13.9127 31.613 19.4201 33.835 24.1771 33.4492C26.3907 33.2663 28.5585 34.0556 30.069 35.6525Z" fill="url(#paint0_linear_84_988)"/>
<path d="M30.069 35.6525L59.0465 66.2873C60.5172 67.8422 62.9931 68.0216 64.6313 66.5783C66.326 65.0814 66.4525 62.4935 64.9155 60.8686L35.8717 30.1637C34.3612 28.5668 33.7069 26.3725 34.0125 24.1725C34.6487 19.4303 32.7362 13.808 28.4962 9.32549C22.017 2.47573 12.5525 0.918093 7.35835 5.83123C2.16421 10.7444 3.19358 20.2808 9.67277 27.1306C13.9127 31.613 19.4201 33.835 24.1771 33.4492C26.3907 33.2663 28.5585 34.0556 30.069 35.6525Z" fill="url(#paint1_linear_84_988)"/>
<path d="M30.069 35.6525L59.0465 66.2873C60.5172 67.8422 62.9931 68.0216 64.6313 66.5783C66.326 65.0814 66.4525 62.4935 64.9155 60.8686L35.8717 30.1637C34.3612 28.5668 33.7069 26.3725 34.0125 24.1725C34.6487 19.4303 32.7362 13.808 28.4962 9.32549C22.017 2.47573 12.5525 0.918093 7.35835 5.83123C2.16421 10.7444 3.19358 20.2808 9.67277 27.1306C13.9127 31.613 19.4201 33.835 24.1771 33.4492C26.3907 33.2663 28.5585 34.0556 30.069 35.6525Z" fill="url(#paint2_linear_84_988)"/>
<path d="M10.2731 8.91277C6.3649 12.6096 7.14154 19.7769 12.0078 24.9215C16.8741 30.0661 23.9872 31.2398 27.8955 27.543C31.8037 23.8462 31.0271 16.6788 26.1608 11.5342C21.2945 6.38965 14.1814 5.21598 10.2731 8.91277Z" fill="url(#paint3_linear_84_988)"/>
<path d="M10.2731 8.91277C6.3649 12.6096 7.14154 19.7769 12.0078 24.9215C16.8741 30.0661 23.9872 31.2398 27.8955 27.543C31.8037 23.8462 31.0271 16.6788 26.1608 11.5342C21.2945 6.38965 14.1814 5.21598 10.2731 8.91277Z" fill="#AFA5BE"/>
<g filter="url(#filter0_f_84_988)">
<path fill-rule="evenodd" clip-rule="evenodd" d="M7.8187 16.0412C7.59799 13.2698 8.39407 10.6902 10.2731 8.91277C14.1813 5.21597 21.2945 6.38964 26.1608 11.5342C29.1929 14.7398 30.6372 18.7306 30.3499 22.1779C30.1115 19.1851 28.6874 15.9687 26.1608 13.2975C21.2945 8.15295 14.1813 6.97927 10.2731 10.6761C8.80005 12.0694 7.99254 13.9559 7.8187 16.0412Z" fill="#9787AD"/>
</g>
<g filter="url(#filter1_f_84_988)">
<path fill-rule="evenodd" clip-rule="evenodd" d="M9.8961 10.6312C9.51087 14.7398 11.2188 19.5209 14.8441 23.3536C18.0141 26.7049 21.9894 28.6327 25.6948 28.9596C21.8128 29.9635 16.8838 28.3403 13.225 24.4722C9.18888 20.2053 7.96606 14.5469 9.8961 10.6312Z" fill="#C4C0CE"/>
</g>
<g filter="url(#filter2_f_84_988)">
<path fill-rule="evenodd" clip-rule="evenodd" d="M12.0078 24.9215C7.14155 19.7769 6.3649 12.6096 10.2731 8.91277C12.0051 7.27447 14.3666 6.59272 16.8829 6.78921C14.7571 6.82933 12.795 7.53079 11.3012 8.9438C7.39294 12.6406 8.16959 19.808 13.0359 24.9526C15.7456 27.8173 19.152 29.4507 22.3137 29.6976C18.8778 29.7624 15.0141 28.0997 12.0078 24.9215Z" fill="white" fill-opacity="0.4"/>
</g>
<g filter="url(#filter3_f_84_988)">
<path d="M63.8388 65.0468L52.6312 52.9659" stroke="url(#paint4_linear_84_988)" stroke-width="1.125" stroke-linecap="round" stroke-linejoin="round"/>
</g>
</g>
<defs>
<filter id="filter0_f_84_988" x="5.53285" y="4.50635" width="27.1029" height="19.9215" filterUnits="userSpaceOnUse" color-interpolation-filters="sRGB">
<feFlood flood-opacity="0" result="BackgroundImageFix"/>
<feBlend mode="normal" in="SourceGraphic" in2="BackgroundImageFix" result="shape"/>
<feGaussianBlur stdDeviation="1.125" result="effect1_foregroundBlur_84_988"/>
</filter>
<filter id="filter1_f_84_988" x="6.75" y="8.38123" width="21.1948" height="23.1189" filterUnits="userSpaceOnUse" color-interpolation-filters="sRGB">
<feFlood flood-opacity="0" result="BackgroundImageFix"/>
<feBlend mode="normal" in="SourceGraphic" in2="BackgroundImageFix" result="shape"/>
<feGaussianBlur stdDeviation="1.125" result="effect1_foregroundBlur_84_988"/>
</filter>
<filter id="filter2_f_84_988" x="6.65787" y="5.63135" width="16.7809" height="25.1931" filterUnits="userSpaceOnUse" color-interpolation-filters="sRGB">
<feFlood flood-opacity="0" result="BackgroundImageFix"/>
<feBlend mode="normal" in="SourceGraphic" in2="BackgroundImageFix" result="shape"/>
<feGaussianBlur stdDeviation="0.5625" result="effect1_foregroundBlur_84_988"/>
</filter>
<filter id="filter3_f_84_988" x="49.8187" y="50.1534" width="16.8326" height="17.7058" filterUnits="userSpaceOnUse" color-interpolation-filters="sRGB">
<feFlood flood-opacity="0" result="BackgroundImageFix"/>
<feBlend mode="normal" in="SourceGraphic" in2="BackgroundImageFix" result="shape"/>
<feGaussianBlur stdDeviation="1.125" result="effect1_foregroundBlur_84_988"/>
</filter>
<linearGradient id="paint0_linear_84_988" x1="53.3304" y1="48.2038" x2="47.1584" y2="54.1112" gradientUnits="userSpaceOnUse">
<stop stop-color="#C6C6CC"/>
<stop offset="0.302083" stop-color="#C8C2D3"/>
<stop offset="0.708333" stop-color="#AD9DC2"/>
<stop offset="1" stop-color="#9783B0"/>
</linearGradient>
<linearGradient id="paint1_linear_84_988" x1="21.4125" y1="17.4321" x2="4.7482" y2="21.3116" gradientUnits="userSpaceOnUse">
<stop stop-color="#B3AEBA" stop-opacity="0"/>
<stop offset="1" stop-color="#B3AEBA"/>
</linearGradient>
<linearGradient id="paint2_linear_84_988" x1="16.2104" y1="6.67527" x2="14.0061" y2="2.17856" gradientUnits="userSpaceOnUse">
<stop stop-color="#89888D" stop-opacity="0"/>
<stop offset="1" stop-color="#89888D" stop-opacity="0.6"/>
</linearGradient>
<linearGradient id="paint3_linear_84_988" x1="21.6481" y1="8.34618" x2="16.0093" y2="22.5288" gradientUnits="userSpaceOnUse">
<stop stop-color="#9C8DB0" stop-opacity="0.6"/>
<stop offset="1" stop-color="#9C8DB0" stop-opacity="0"/>
</linearGradient>
<linearGradient id="paint4_linear_84_988" x1="51.758" y1="52.9659" x2="63.8388" y2="66.0657" gradientUnits="userSpaceOnUse">
<stop stop-color="white" stop-opacity="0"/>
<stop offset="1" stop-color="white"/>
</linearGradient>
<clipPath id="clip0_84_988">
<rect width="72" height="72" fill="white"/>
</clipPath>
</defs>
</svg>
