<svg width="29" height="29" viewBox="0 0 29 29" fill="none" xmlns="http://www.w3.org/2000/svg">
<path d="M22.0435 10.8888L18.0053 17.8832C17.8763 18.1065 17.8386 18.371 17.9001 18.6214L18.4165 20.7269C18.552 21.2795 19.1207 21.6078 19.667 21.4489L21.7487 20.8434C21.9963 20.7714 22.2065 20.6065 22.3354 20.3832L26.3736 13.3888M22.0435 10.8888L23.5 8.36603C23.7761 7.88773 24.3877 7.72386 24.866 8L27.4641 9.5C27.9424 9.77614 28.1063 10.3877 27.8301 10.866L26.3736 13.3888M22.0435 10.8888L26.3736 13.3888" stroke="#848490" stroke-width="1.5"/>
<path fill-rule="evenodd" clip-rule="evenodd" d="M9.5 6H19.5C19.7761 6 20 6.22386 20 6.5V13.4282L21.5 10.8301V6.5C21.5 5.39543 20.6046 4.5 19.5 4.5H9.5C8.39543 4.5 7.5 5.39543 7.5 6.5V22.5C7.5 23.6046 8.39543 24.5 9.5 24.5H19.5C20.6046 24.5 21.5 23.6046 21.5 22.5V20.9157L20 21.3521V22.5C20 22.7761 19.7761 23 19.5 23H9.5C9.22386 23 9 22.7761 9 22.5V6.5C9 6.22386 9.22386 6 9.5 6Z" fill="#848490"/>
<path d="M10.585 8.5H18.585" stroke="#848490" stroke-width="1.5" stroke-linecap="round"/>
<path d="M10.585 11.5H15.585" stroke="#848490" stroke-width="1.5" stroke-linecap="round"/>
<path d="M10.585 14.5H15.585" stroke="#848490" stroke-width="1.5" stroke-linecap="round"/>
</svg>
