<svg width="72" height="72" viewBox="0 0 72 72" fill="none" xmlns="http://www.w3.org/2000/svg">
<path d="M45.7885 15.9243C48.5258 21.9603 51.8851 29.3674 54.4069 32.3097C54.8992 31.1667 54.8465 29.2498 55.4092 24.5721C55.9174 20.348 59.4011 19.9471 60.8959 20.246C64.202 20.9354 65.2091 24.2864 65.0988 25.5217C64.923 27.4913 64.9145 27.4243 64.5537 32.1866C64.0261 39.1505 66.7167 44.4086 66.9629 50.3701C66.9629 61.6072 57.115 67.1291 50.2215 67.1291C44.7067 67.1291 39.1895 63.6003 37.1203 61.8358L26.78 52.3924C25.5138 51.4076 22.3844 48.1583 21.0117 46.2902C17.2695 41.1975 22.6825 37.6909 25.7246 38.5702C25.4855 38.3873 24.0424 36.0437 23.3508 34.8948C21.4937 31.1667 23.3508 28.6832 24.7225 28.0013C27.8351 26.4537 30.1212 28.1947 30.8422 29.1443C30.5667 28.6754 29.7027 26.7808 28.3099 23.3059C26.9172 19.831 29.1599 17.6844 30.4554 17.0455C33.269 15.7442 35.942 17.3972 36.6103 18.8744C36.9375 19.5977 38.7026 23.4637 39.4712 25.1687C38.892 23.755 37.8429 20.9462 37.472 19.6481C36.7334 16.5883 38.5094 14.4898 39.6349 13.9505C41.1999 13.2006 44.4642 13.0042 45.7547 15.8497L45.7885 15.9243Z" fill="url(#paint0_radial_65_1910)"/>
<path d="M45.7883 15.9243C48.5257 21.9603 51.8849 29.3674 54.4067 32.3097C54.8991 31.1667 54.8463 29.2498 55.409 24.5721C55.9172 20.348 59.4009 19.9471 60.8957 20.246C64.2018 20.9354 65.209 24.2864 65.0987 25.5217C64.9228 27.4913 64.9143 27.4243 64.5535 32.1866C64.0259 39.1505 66.7165 44.4086 66.9627 50.3701C66.9627 61.6072 57.1148 67.1291 50.2213 67.1291C44.7065 67.1291 39.1893 63.6003 37.1201 61.8358L26.7798 52.3924C25.5136 51.4076 22.3842 48.1583 21.0115 46.2902C17.2693 41.1975 22.6824 37.6909 25.7244 38.5702C25.4853 38.3873 24.0422 36.0437 23.3506 34.8948C21.4936 31.1667 23.3506 28.6832 24.7223 28.0013C27.8349 26.4537 30.121 28.1947 30.842 29.1443C30.5665 28.6754 29.7025 26.7808 28.3097 23.3059C26.917 19.831 29.1597 17.6844 30.4552 17.0455C33.2689 15.7442 35.9419 17.3972 36.6101 18.8744C36.9374 19.5977 38.7025 23.4637 39.471 25.1687C38.8919 23.755 37.8428 20.9462 37.4718 19.6481C36.7332 16.5883 38.5092 14.4898 39.6347 13.9505C41.1997 13.2006 44.464 13.0042 45.7545 15.8497L45.7883 15.9243Z" fill="url(#paint1_radial_65_1910)"/>
<path d="M65.0987 25.5217C64.9229 27.4913 64.9144 27.4243 64.5536 32.1866C64.3672 34.6472 65.7051 43.7095 65.7051 43.7095C62.4533 44.7713 55.4091 43.3634 54.4067 32.3097C54.8991 31.1666 54.8464 29.2498 55.4091 24.5721C55.9173 20.3479 59.401 19.9471 60.8958 20.246C64.2019 20.9354 65.209 24.2864 65.0987 25.5217Z" fill="url(#paint2_radial_65_1910)"/>
<path d="M65.0987 25.5217C64.9229 27.4913 64.9144 27.4243 64.5536 32.1866C64.3672 34.6472 65.7051 43.7095 65.7051 43.7095C62.4533 44.7713 55.4091 43.3634 54.4067 32.3097C54.8991 31.1666 54.8464 29.2498 55.4091 24.5721C55.9173 20.3479 59.401 19.9471 60.8958 20.246C64.2019 20.9354 65.209 24.2864 65.0987 25.5217Z" fill="url(#paint3_radial_65_1910)"/>
<path d="M65.0987 25.5217C64.9229 27.4913 64.9144 27.4243 64.5536 32.1866C64.3672 34.6472 65.7051 43.7095 65.7051 43.7095C62.4533 44.7713 55.4091 43.3634 54.4067 32.3097C54.8991 31.1666 54.8464 29.2498 55.4091 24.5721C55.9173 20.3479 59.401 19.9471 60.8958 20.246C64.2019 20.9354 65.209 24.2864 65.0987 25.5217Z" fill="url(#paint4_radial_65_1910)"/>
<path d="M45.7884 15.9243C48.5258 21.9602 51.885 29.3674 54.4068 32.3097C54.0122 35.6767 51.0029 37.2864 48.4101 36.6838C45.1405 35.7346 43.9004 33.4143 43.9004 33.4143C43.9004 33.4143 43.0464 32.0926 42.2129 30.6369C41.2487 28.9531 41.4246 28.9909 39.8108 25.9438C39.4942 25.3459 37.941 21.2894 37.4719 19.6481C36.7333 16.5883 38.5094 14.4898 39.6348 13.9505C41.1998 13.2006 44.4642 13.0042 45.7546 15.8497L45.7884 15.9243Z" fill="url(#paint5_radial_65_1910)"/>
<path d="M45.7884 15.9243C48.5258 21.9602 51.885 29.3674 54.4068 32.3097C54.0122 35.6767 51.0029 37.2864 48.4101 36.6838C45.1405 35.7346 43.9004 33.4143 43.9004 33.4143C43.9004 33.4143 43.0464 32.0926 42.2129 30.6369C41.2487 28.9531 41.4246 28.9909 39.8108 25.9438C39.4942 25.3459 37.941 21.2894 37.4719 19.6481C36.7333 16.5883 38.5094 14.4898 39.6348 13.9505C41.1998 13.2006 44.4642 13.0042 45.7546 15.8497L45.7884 15.9243Z" fill="url(#paint6_linear_65_1910)"/>
<path d="M45.7884 15.9243C48.5258 21.9602 51.885 29.3674 54.4068 32.3097C54.0122 35.6767 51.0029 37.2864 48.4101 36.6838C45.1405 35.7346 43.9004 33.4143 43.9004 33.4143C43.9004 33.4143 43.0464 32.0926 42.2129 30.6369C41.2487 28.9531 41.4246 28.9909 39.8108 25.9438C39.4942 25.3459 37.941 21.2894 37.4719 19.6481C36.7333 16.5883 38.5094 14.4898 39.6348 13.9505C41.1998 13.2006 44.4642 13.0042 45.7546 15.8497L45.7884 15.9243Z" fill="url(#paint7_radial_65_1910)"/>
<path d="M45.7884 15.9243C48.5258 21.9602 51.885 29.3674 54.4068 32.3097C54.0122 35.6767 51.0029 37.2864 48.4101 36.6838C45.1405 35.7346 43.9004 33.4143 43.9004 33.4143C43.9004 33.4143 43.0464 32.0926 42.2129 30.6369C41.2487 28.9531 41.4246 28.9909 39.8108 25.9438C39.4942 25.3459 37.941 21.2894 37.4719 19.6481C36.7333 16.5883 38.5094 14.4898 39.6348 13.9505C41.1998 13.2006 44.4642 13.0042 45.7546 15.8497L45.7884 15.9243Z" fill="url(#paint8_radial_65_1910)"/>
<path d="M45.7884 15.9243C48.5258 21.9602 51.885 29.3674 54.4068 32.3097C54.0122 35.6767 51.0029 37.2864 48.4101 36.6838C45.1405 35.7346 43.9004 33.4143 43.9004 33.4143C43.9004 33.4143 43.0464 32.0926 42.2129 30.6369C41.2487 28.9531 41.4246 28.9909 39.8108 25.9438C39.4942 25.3459 37.941 21.2894 37.4719 19.6481C36.7333 16.5883 38.5094 14.4898 39.6348 13.9505C41.1998 13.2006 44.4642 13.0042 45.7546 15.8497L45.7884 15.9243Z" fill="url(#paint9_linear_65_1910)"/>
<path d="M36.6102 18.8743C37.0504 19.8473 40.0922 26.5064 39.8108 25.9437C40.629 27.7879 43.1621 32.2892 43.9004 33.5197C45.5284 36.233 43.691 38.4903 42.5038 39.1798C39.092 41.1613 37.1328 38.6349 37.1328 38.6349C35.3334 35.9967 33.8281 33.8009 30.8574 29.1251C30.1414 27.7777 28.8359 24.7657 28.3098 23.3059C27.0112 19.702 29.1598 17.6843 30.4553 17.0454C33.269 15.7441 35.942 17.3971 36.6102 18.8743Z" fill="url(#paint10_radial_65_1910)"/>
<path d="M36.6102 18.8743C37.0504 19.8473 40.0922 26.5064 39.8108 25.9437C40.629 27.7879 43.1621 32.2892 43.9004 33.5197C45.5284 36.233 43.691 38.4903 42.5038 39.1798C39.092 41.1613 37.1328 38.6349 37.1328 38.6349C35.3334 35.9967 33.8281 33.8009 30.8574 29.1251C30.1414 27.7777 28.8359 24.7657 28.3098 23.3059C27.0112 19.702 29.1598 17.6843 30.4553 17.0454C33.269 15.7441 35.942 17.3971 36.6102 18.8743Z" fill="url(#paint11_linear_65_1910)"/>
<path d="M36.6102 18.8743C37.0504 19.8473 40.0922 26.5064 39.8108 25.9437C40.629 27.7879 43.1621 32.2892 43.9004 33.5197C45.5284 36.233 43.691 38.4903 42.5038 39.1798C39.092 41.1613 37.1328 38.6349 37.1328 38.6349C35.3334 35.9967 33.8281 33.8009 30.8574 29.1251C30.1414 27.7777 28.8359 24.7657 28.3098 23.3059C27.0112 19.702 29.1598 17.6843 30.4553 17.0454C33.269 15.7441 35.942 17.3971 36.6102 18.8743Z" fill="url(#paint12_radial_65_1910)"/>
<path d="M36.6102 18.8743C37.0504 19.8473 40.0922 26.5064 39.8108 25.9437C40.629 27.7879 43.1621 32.2892 43.9004 33.5197C45.5284 36.233 43.691 38.4903 42.5038 39.1798C39.092 41.1613 37.1328 38.6349 37.1328 38.6349C35.3334 35.9967 33.8281 33.8009 30.8574 29.1251C30.1414 27.7777 28.8359 24.7657 28.3098 23.3059C27.0112 19.702 29.1598 17.6843 30.4553 17.0454C33.269 15.7441 35.942 17.3971 36.6102 18.8743Z" fill="url(#paint13_radial_65_1910)"/>
<path d="M36.6102 18.8743C37.0504 19.8473 40.0922 26.5064 39.8108 25.9437C40.629 27.7879 43.1621 32.2892 43.9004 33.5197C45.5284 36.233 43.691 38.4903 42.5038 39.1798C39.092 41.1613 37.1328 38.6349 37.1328 38.6349C35.3334 35.9967 33.8281 33.8009 30.8574 29.1251C30.1414 27.7777 28.8359 24.7657 28.3098 23.3059C27.0112 19.702 29.1598 17.6843 30.4553 17.0454C33.269 15.7441 35.942 17.3971 36.6102 18.8743Z" fill="url(#paint14_radial_65_1910)"/>
<path d="M36.6102 18.8743C37.0504 19.8473 40.0922 26.5064 39.8108 25.9437C40.629 27.7879 43.1621 32.2892 43.9004 33.5197C45.5284 36.233 43.691 38.4903 42.5038 39.1798C39.092 41.1613 37.1328 38.6349 37.1328 38.6349C35.3334 35.9967 33.8281 33.8009 30.8574 29.1251C30.1414 27.7777 28.8359 24.7657 28.3098 23.3059C27.0112 19.702 29.1598 17.6843 30.4553 17.0454C33.269 15.7441 35.942 17.3971 36.6102 18.8743Z" fill="url(#paint15_linear_65_1910)"/>
<path d="M24.7225 28.0011C27.8351 26.4536 30.1212 28.1946 30.8422 29.1442C33.0897 32.5351 35.7704 36.3914 37.0096 38.4414C40.3143 43.9082 33.5467 46.2812 33.5467 46.2812C27.3241 39.2676 26.1728 38.9127 25.7246 38.57C25.4855 38.3871 24.0423 36.0436 23.3507 34.8946C21.4937 31.1665 23.3508 28.6831 24.7225 28.0011Z" fill="url(#paint16_radial_65_1910)"/>
<path d="M24.7225 28.0011C27.8351 26.4536 30.1212 28.1946 30.8422 29.1442C33.0897 32.5351 35.7704 36.3914 37.0096 38.4414C40.3143 43.9082 33.5467 46.2812 33.5467 46.2812C27.3241 39.2676 26.1728 38.9127 25.7246 38.57C25.4855 38.3871 24.0423 36.0436 23.3507 34.8946C21.4937 31.1665 23.3508 28.6831 24.7225 28.0011Z" fill="url(#paint17_linear_65_1910)"/>
<path d="M24.7225 28.0011C27.8351 26.4536 30.1212 28.1946 30.8422 29.1442C33.0897 32.5351 35.7704 36.3914 37.0096 38.4414C40.3143 43.9082 33.5467 46.2812 33.5467 46.2812C27.3241 39.2676 26.1728 38.9127 25.7246 38.57C25.4855 38.3871 24.0423 36.0436 23.3507 34.8946C21.4937 31.1665 23.3508 28.6831 24.7225 28.0011Z" fill="url(#paint18_radial_65_1910)"/>
<path d="M24.7225 28.0011C27.8351 26.4536 30.1212 28.1946 30.8422 29.1442C33.0897 32.5351 35.7704 36.3914 37.0096 38.4414C40.3143 43.9082 33.5467 46.2812 33.5467 46.2812C27.3241 39.2676 26.1728 38.9127 25.7246 38.57C25.4855 38.3871 24.0423 36.0436 23.3507 34.8946C21.4937 31.1665 23.3508 28.6831 24.7225 28.0011Z" fill="url(#paint19_radial_65_1910)"/>
<path d="M24.7225 28.0011C27.8351 26.4536 30.1212 28.1946 30.8422 29.1442C33.0897 32.5351 35.7704 36.3914 37.0096 38.4414C40.3143 43.9082 33.5467 46.2812 33.5467 46.2812C27.3241 39.2676 26.1728 38.9127 25.7246 38.57C25.4855 38.3871 24.0423 36.0436 23.3507 34.8946C21.4937 31.1665 23.3508 28.6831 24.7225 28.0011Z" fill="url(#paint20_radial_65_1910)"/>
<path d="M24.7225 28.0011C27.8351 26.4536 30.1212 28.1946 30.8422 29.1442C33.0897 32.5351 35.7704 36.3914 37.0096 38.4414C40.3143 43.9082 33.5467 46.2812 33.5467 46.2812C27.3241 39.2676 26.1728 38.9127 25.7246 38.57C25.4855 38.3871 24.0423 36.0436 23.3507 34.8946C21.4937 31.1665 23.3508 28.6831 24.7225 28.0011Z" fill="url(#paint21_radial_65_1910)"/>
<path d="M21.0115 46.2901C17.2693 41.1974 22.6824 37.6908 25.7244 38.5701C27.1659 39.461 29.3898 41.6911 30.3396 42.6954C36.3726 48.5794 35.367 50.3946 33.6795 52.3923C32.0445 53.7489 29.9188 54.8338 26.7798 52.3923C25.5136 51.4075 22.3842 48.1583 21.0115 46.2901Z" fill="url(#paint22_radial_65_1910)"/>
<path d="M21.0115 46.2901C17.2693 41.1974 22.6824 37.6908 25.7244 38.5701C27.1659 39.461 29.3898 41.6911 30.3396 42.6954C36.3726 48.5794 35.367 50.3946 33.6795 52.3923C32.0445 53.7489 29.9188 54.8338 26.7798 52.3923C25.5136 51.4075 22.3842 48.1583 21.0115 46.2901Z" fill="url(#paint23_radial_65_1910)"/>
<path d="M21.0115 46.2901C17.2693 41.1974 22.6824 37.6908 25.7244 38.5701C27.1659 39.461 29.3898 41.6911 30.3396 42.6954C36.3726 48.5794 35.367 50.3946 33.6795 52.3923C32.0445 53.7489 29.9188 54.8338 26.7798 52.3923C25.5136 51.4075 22.3842 48.1583 21.0115 46.2901Z" fill="url(#paint24_radial_65_1910)"/>
<path d="M21.0115 46.2901C17.2693 41.1974 22.6824 37.6908 25.7244 38.5701C27.1659 39.461 29.3898 41.6911 30.3396 42.6954C36.3726 48.5794 35.367 50.3946 33.6795 52.3923C32.0445 53.7489 29.9188 54.8338 26.7798 52.3923C25.5136 51.4075 22.3842 48.1583 21.0115 46.2901Z" fill="url(#paint25_radial_65_1910)"/>
<path d="M21.0115 46.2901C17.2693 41.1974 22.6824 37.6908 25.7244 38.5701C27.1659 39.461 29.3898 41.6911 30.3396 42.6954C36.3726 48.5794 35.367 50.3946 33.6795 52.3923C32.0445 53.7489 29.9188 54.8338 26.7798 52.3923C25.5136 51.4075 22.3842 48.1583 21.0115 46.2901Z" fill="url(#paint26_linear_65_1910)"/>
<path d="M45.7883 15.9243C48.5257 21.9603 51.8849 29.3674 54.4067 32.3097C54.8991 31.1667 54.8463 29.2498 55.409 24.5721C55.9172 20.348 59.4009 19.9471 60.8957 20.246C64.2018 20.9354 65.209 24.2864 65.0987 25.5217C64.9228 27.4913 64.9143 27.4243 64.5535 32.1866C64.0259 39.1505 66.7165 44.4086 66.9627 50.3701C66.9627 61.6072 57.1148 67.1291 50.2213 67.1291C44.7065 67.1291 39.1893 63.6003 37.1201 61.8358L26.7798 52.3924C25.5136 51.4076 22.3842 48.1583 21.0115 46.2902C17.2693 41.1975 22.6824 37.6909 25.7244 38.5702C25.4853 38.3873 24.0422 36.0437 23.3506 34.8948C21.4936 31.1667 23.3506 28.6832 24.7223 28.0013C27.8349 26.4537 30.121 28.1947 30.842 29.1443C30.5665 28.6754 29.7025 26.7808 28.3097 23.3059C26.917 19.831 29.1597 17.6844 30.4552 17.0455C33.2689 15.7442 35.9419 17.3972 36.6101 18.8744C36.9374 19.5977 38.7025 23.4637 39.471 25.1687C38.8919 23.755 37.8428 20.9462 37.4718 19.6481C36.7332 16.5883 38.5092 14.4898 39.6347 13.9505C41.1997 13.2006 44.464 13.0042 45.7545 15.8497L45.7883 15.9243Z" fill="url(#paint27_radial_65_1910)"/>
<path d="M45.7883 15.9243C48.5257 21.9603 51.8849 29.3674 54.4067 32.3097C54.8991 31.1667 54.8463 29.2498 55.409 24.5721C55.9172 20.348 59.4009 19.9471 60.8957 20.246C64.2018 20.9354 65.209 24.2864 65.0987 25.5217C64.9228 27.4913 64.9143 27.4243 64.5535 32.1866C64.0259 39.1505 66.7165 44.4086 66.9627 50.3701C66.9627 61.6072 57.1148 67.1291 50.2213 67.1291C44.7065 67.1291 39.1893 63.6003 37.1201 61.8358L26.7798 52.3924C25.5136 51.4076 22.3842 48.1583 21.0115 46.2902C17.2693 41.1975 22.6824 37.6909 25.7244 38.5702C25.4853 38.3873 24.0422 36.0437 23.3506 34.8948C21.4936 31.1667 23.3506 28.6832 24.7223 28.0013C27.8349 26.4537 30.121 28.1947 30.842 29.1443C30.5665 28.6754 29.7025 26.7808 28.3097 23.3059C26.917 19.831 29.1597 17.6844 30.4552 17.0455C33.2689 15.7442 35.9419 17.3972 36.6101 18.8744C36.9374 19.5977 38.7025 23.4637 39.471 25.1687C38.8919 23.755 37.8428 20.9462 37.4718 19.6481C36.7332 16.5883 38.5092 14.4898 39.6347 13.9505C41.1997 13.2006 44.464 13.0042 45.7545 15.8497L45.7883 15.9243Z" fill="url(#paint28_radial_65_1910)"/>
<path d="M45.7883 15.9243C48.5257 21.9603 51.8849 29.3674 54.4067 32.3097C54.8991 31.1667 54.8463 29.2498 55.409 24.5721C55.9172 20.348 59.4009 19.9471 60.8957 20.246C64.2018 20.9354 65.209 24.2864 65.0987 25.5217C64.9228 27.4913 64.9143 27.4243 64.5535 32.1866C64.0259 39.1505 66.7165 44.4086 66.9627 50.3701C66.9627 61.6072 57.1148 67.1291 50.2213 67.1291C44.7065 67.1291 39.1893 63.6003 37.1201 61.8358L26.7798 52.3924C25.5136 51.4076 22.3842 48.1583 21.0115 46.2902C17.2693 41.1975 22.6824 37.6909 25.7244 38.5702C25.4853 38.3873 24.0422 36.0437 23.3506 34.8948C21.4936 31.1667 23.3506 28.6832 24.7223 28.0013C27.8349 26.4537 30.121 28.1947 30.842 29.1443C30.5665 28.6754 29.7025 26.7808 28.3097 23.3059C26.917 19.831 29.1597 17.6844 30.4552 17.0455C33.2689 15.7442 35.9419 17.3972 36.6101 18.8744C36.9374 19.5977 38.7025 23.4637 39.471 25.1687C38.8919 23.755 37.8428 20.9462 37.4718 19.6481C36.7332 16.5883 38.5092 14.4898 39.6347 13.9505C41.1997 13.2006 44.464 13.0042 45.7545 15.8497L45.7883 15.9243Z" fill="url(#paint29_radial_65_1910)"/>
<path d="M49.604 24.0019C51.2932 27.4548 52.9809 30.5479 54.4069 32.2416C54.5527 33.7482 54.6845 34.6095 55.0449 35.9103C52.1972 33.0626 49.4435 26.8356 49.604 24.0019Z" fill="url(#paint30_radial_65_1910)"/>
<path fill-rule="evenodd" clip-rule="evenodd" d="M9.28347 38.0259C9.95321 38.0259 10.4961 38.5689 10.4961 39.2386C10.4961 41.2651 11.3156 43.9773 13.0808 46.1668C14.8158 48.3188 17.4456 49.9489 21.1361 49.9489C21.8059 49.9489 22.3488 50.4919 22.3488 51.1616C22.3488 51.8313 21.8059 52.3743 21.1361 52.3743C16.6318 52.3743 13.3353 50.3466 11.1927 47.689C9.08023 45.0688 8.0708 41.8196 8.0708 39.2386C8.0708 38.5689 8.61373 38.0259 9.28347 38.0259Z" fill="url(#paint31_radial_65_1910)"/>
<path fill-rule="evenodd" clip-rule="evenodd" d="M9.28347 38.0259C9.95321 38.0259 10.4961 38.5689 10.4961 39.2386C10.4961 41.2651 11.3156 43.9773 13.0808 46.1668C14.8158 48.3188 17.4456 49.9489 21.1361 49.9489C21.8059 49.9489 22.3488 50.4919 22.3488 51.1616C22.3488 51.8313 21.8059 52.3743 21.1361 52.3743C16.6318 52.3743 13.3353 50.3466 11.1927 47.689C9.08023 45.0688 8.0708 41.8196 8.0708 39.2386C8.0708 38.5689 8.61373 38.0259 9.28347 38.0259Z" fill="url(#paint32_radial_65_1910)"/>
<path fill-rule="evenodd" clip-rule="evenodd" d="M9.28347 38.0259C9.95321 38.0259 10.4961 38.5689 10.4961 39.2386C10.4961 41.2651 11.3156 43.9773 13.0808 46.1668C14.8158 48.3188 17.4456 49.9489 21.1361 49.9489C21.8059 49.9489 22.3488 50.4919 22.3488 51.1616C22.3488 51.8313 21.8059 52.3743 21.1361 52.3743C16.6318 52.3743 13.3353 50.3466 11.1927 47.689C9.08023 45.0688 8.0708 41.8196 8.0708 39.2386C8.0708 38.5689 8.61373 38.0259 9.28347 38.0259Z" fill="url(#paint33_radial_65_1910)"/>
<path fill-rule="evenodd" clip-rule="evenodd" d="M5.50887 42.3521C6.17861 42.3521 6.72155 42.895 6.72155 43.5648C6.72155 47.8632 9.94149 53.6068 16.7032 53.6068C17.3729 53.6068 17.9158 54.1498 17.9158 54.8195C17.9158 55.4892 17.3729 56.0322 16.7032 56.0322C8.2006 56.0322 4.2962 48.7625 4.2962 43.5648C4.2962 42.895 4.83913 42.3521 5.50887 42.3521Z" fill="url(#paint34_radial_65_1910)"/>
<path fill-rule="evenodd" clip-rule="evenodd" d="M5.50887 42.3521C6.17861 42.3521 6.72155 42.895 6.72155 43.5648C6.72155 47.8632 9.94149 53.6068 16.7032 53.6068C17.3729 53.6068 17.9158 54.1498 17.9158 54.8195C17.9158 55.4892 17.3729 56.0322 16.7032 56.0322C8.2006 56.0322 4.2962 48.7625 4.2962 43.5648C4.2962 42.895 4.83913 42.3521 5.50887 42.3521Z" fill="url(#paint35_radial_65_1910)"/>
<path fill-rule="evenodd" clip-rule="evenodd" d="M50.9316 22.1669C50.2619 22.1712 49.7154 21.6319 49.7111 20.9621C49.6978 18.9357 48.8607 16.2289 47.0812 14.051C45.3322 11.9104 42.6918 10.2975 39.0013 10.3216C38.3316 10.326 37.7851 9.7866 37.7808 9.11687C37.7764 8.44715 38.3157 7.90068 38.9855 7.8963C43.4897 7.86686 46.7994 9.87294 48.9593 12.5165C51.0888 15.1228 52.1195 18.3654 52.1364 20.9463C52.1407 21.616 51.6014 22.1625 50.9316 22.1669Z" fill="url(#paint36_radial_65_1910)"/>
<path fill-rule="evenodd" clip-rule="evenodd" d="M50.9316 22.1669C50.2619 22.1712 49.7154 21.6319 49.7111 20.9621C49.6978 18.9357 48.8607 16.2289 47.0812 14.051C45.3322 11.9104 42.6918 10.2975 39.0013 10.3216C38.3316 10.326 37.7851 9.7866 37.7808 9.11687C37.7764 8.44715 38.3157 7.90068 38.9855 7.8963C43.4897 7.86686 46.7994 9.87294 48.9593 12.5165C51.0888 15.1228 52.1195 18.3654 52.1364 20.9463C52.1407 21.616 51.6014 22.1625 50.9316 22.1669Z" fill="url(#paint37_radial_65_1910)"/>
<path fill-rule="evenodd" clip-rule="evenodd" d="M54.6754 17.8168C54.0056 17.8212 53.4592 17.2818 53.4548 16.6121C53.4267 12.3137 50.1693 6.59129 43.4077 6.63549C42.738 6.63987 42.1915 6.1005 42.1872 5.43077C42.1828 4.76105 42.7222 4.21458 43.3919 4.2102C51.8943 4.15463 55.8461 11.3986 55.8801 16.5963C55.8845 17.266 55.3451 17.8124 54.6754 17.8168Z" fill="url(#paint38_radial_65_1910)"/>
<path fill-rule="evenodd" clip-rule="evenodd" d="M54.6754 17.8168C54.0056 17.8212 53.4592 17.2818 53.4548 16.6121C53.4267 12.3137 50.1693 6.59129 43.4077 6.63549C42.738 6.63987 42.1915 6.1005 42.1872 5.43077C42.1828 4.76105 42.7222 4.21458 43.3919 4.2102C51.8943 4.15463 55.8461 11.3986 55.8801 16.5963C55.8845 17.266 55.3451 17.8124 54.6754 17.8168Z" fill="url(#paint39_radial_65_1910)"/>
<g filter="url(#filter0_f_65_1910)">
<path d="M50.6951 32.4651C46.3357 34.2229 36.4765 39.9964 33.5772 52.8597" stroke="#FFC339" stroke-width="4.5" stroke-linecap="round"/>
</g>
<defs>
<filter id="filter0_f_65_1910" x="26.8267" y="25.7145" width="30.619" height="33.8957" filterUnits="userSpaceOnUse" color-interpolation-filters="sRGB">
<feFlood flood-opacity="0" result="BackgroundImageFix"/>
<feBlend mode="normal" in="SourceGraphic" in2="BackgroundImageFix" result="shape"/>
<feGaussianBlur stdDeviation="2.25" result="effect1_foregroundBlur_65_1910"/>
</filter>
<radialGradient id="paint0_radial_65_1910" cx="0" cy="0" r="1" gradientUnits="userSpaceOnUse" gradientTransform="translate(43.3515 31.1291) rotate(60.1006) scale(47.367 30.9441)">
<stop offset="0.00323036" stop-color="#FFC133"/>
<stop offset="0.697824" stop-color="#FFC53F"/>
<stop offset="0.797459" stop-color="#FFAD3E"/>
<stop offset="0.945275" stop-color="#EC7D58"/>
</radialGradient>
<radialGradient id="paint1_radial_65_1910" cx="0" cy="0" r="1" gradientUnits="userSpaceOnUse" gradientTransform="translate(66.9627 41.5353) rotate(-93.0118) scale(28.1027 10.766)">
<stop offset="0.00323036" stop-color="#FFE849"/>
<stop offset="1" stop-color="#FFE647" stop-opacity="0"/>
</radialGradient>
<radialGradient id="paint2_radial_65_1910" cx="0" cy="0" r="1" gradientUnits="userSpaceOnUse" gradientTransform="translate(63.5878 21.4259) rotate(99.6824) scale(15.0503 5.76573)">
<stop offset="0.00323036" stop-color="#FFE849"/>
<stop offset="1" stop-color="#FFE647" stop-opacity="0"/>
</radialGradient>
<radialGradient id="paint3_radial_65_1910" cx="0" cy="0" r="1" gradientUnits="userSpaceOnUse" gradientTransform="translate(54.4067 30.4896) scale(6.08732 24.6863)">
<stop stop-color="#EE9F2C"/>
<stop offset="1" stop-color="#EE9F2C" stop-opacity="0"/>
</radialGradient>
<radialGradient id="paint4_radial_65_1910" cx="0" cy="0" r="1" gradientUnits="userSpaceOnUse" gradientTransform="translate(57.078 40.0595) rotate(-94.0856) scale(10.2458 7.11656)">
<stop stop-color="#FFC93D"/>
<stop offset="1" stop-color="#FFC33A" stop-opacity="0"/>
</radialGradient>
<radialGradient id="paint5_radial_65_1910" cx="0" cy="0" r="1" gradientUnits="userSpaceOnUse" gradientTransform="translate(51.3535 24.5054) rotate(151.024) scale(10.77 21.6349)">
<stop offset="0.563302" stop-color="#F09D2E" stop-opacity="0"/>
<stop offset="1" stop-color="#F09D2E"/>
</radialGradient>
<linearGradient id="paint6_linear_65_1910" x1="45.8521" y1="35.5393" x2="45.8521" y2="29.7229" gradientUnits="userSpaceOnUse">
<stop stop-color="#FFC337"/>
<stop offset="1" stop-color="#FFC337" stop-opacity="0"/>
</linearGradient>
<radialGradient id="paint7_radial_65_1910" cx="0" cy="0" r="1" gradientUnits="userSpaceOnUse" gradientTransform="translate(49.1035 15.9416) rotate(-13.4957) scale(7.23092 15.9902)">
<stop stop-color="#FFEC4C"/>
<stop offset="1" stop-color="#FFEC4C" stop-opacity="0"/>
</radialGradient>
<radialGradient id="paint8_radial_65_1910" cx="0" cy="0" r="1" gradientUnits="userSpaceOnUse" gradientTransform="translate(37.2975 13.4715) rotate(33.3064) scale(7.05927 5.47311)">
<stop stop-color="#D99F2B"/>
<stop offset="1" stop-color="#D99F2B" stop-opacity="0"/>
</radialGradient>
<linearGradient id="paint9_linear_65_1910" x1="38.416" y1="27.6838" x2="41.9316" y2="25.9963" gradientUnits="userSpaceOnUse">
<stop stop-color="#A85300"/>
<stop offset="0.824742" stop-color="#A85300" stop-opacity="0"/>
</linearGradient>
<radialGradient id="paint10_radial_65_1910" cx="0" cy="0" r="1" gradientUnits="userSpaceOnUse" gradientTransform="translate(41.2039 27.8337) rotate(149.148) scale(10.3818 21.6648)">
<stop offset="0.563302" stop-color="#F09D2E" stop-opacity="0"/>
<stop offset="1" stop-color="#F09D2E"/>
</radialGradient>
<linearGradient id="paint11_linear_65_1910" x1="35.9999" y1="39.093" x2="35.9999" y2="33.1577" gradientUnits="userSpaceOnUse">
<stop stop-color="#FFC337"/>
<stop offset="1" stop-color="#FFC337" stop-opacity="0"/>
</linearGradient>
<radialGradient id="paint12_radial_65_1910" cx="0" cy="0" r="1" gradientUnits="userSpaceOnUse" gradientTransform="translate(40.0077 21.215) rotate(-33.8929) scale(6.88984 20.9761)">
<stop stop-color="#FFEC4C"/>
<stop offset="1" stop-color="#FFEC4C" stop-opacity="0"/>
</radialGradient>
<radialGradient id="paint13_radial_65_1910" cx="0" cy="0" r="1" gradientUnits="userSpaceOnUse" gradientTransform="translate(34.7597 29.7228) rotate(-24.9048) scale(8.68238 39.6447)">
<stop offset="0.597587" stop-color="#F09D2E" stop-opacity="0"/>
<stop offset="1" stop-color="#F09D2E"/>
</radialGradient>
<radialGradient id="paint14_radial_65_1910" cx="0" cy="0" r="1" gradientUnits="userSpaceOnUse" gradientTransform="translate(26.8847 16.5743) rotate(32.6006) scale(7.17775 5.72078)">
<stop stop-color="#D99F2B"/>
<stop offset="1" stop-color="#D99F2B" stop-opacity="0"/>
</radialGradient>
<linearGradient id="paint15_linear_65_1910" x1="30.0488" y1="31.129" x2="32.388" y2="29.4935" gradientUnits="userSpaceOnUse">
<stop stop-color="#A85300"/>
<stop offset="0.824742" stop-color="#A85300" stop-opacity="0"/>
</linearGradient>
<radialGradient id="paint16_radial_65_1910" cx="0" cy="0" r="1" gradientUnits="userSpaceOnUse" gradientTransform="translate(35.1794 36.833) rotate(137.351) scale(8.60079 16.842)">
<stop offset="0.563302" stop-color="#F09D2E" stop-opacity="0"/>
<stop offset="1" stop-color="#F09D2E"/>
</radialGradient>
<linearGradient id="paint17_linear_65_1910" x1="30.2438" y1="46.2812" x2="30.2438" y2="41.3007" gradientUnits="userSpaceOnUse">
<stop stop-color="#FFC337"/>
<stop offset="1" stop-color="#FFC337" stop-opacity="0"/>
</linearGradient>
<radialGradient id="paint18_radial_65_1910" cx="0" cy="0" r="1" gradientUnits="userSpaceOnUse" gradientTransform="translate(33.0688 29.45) rotate(-12.2956) scale(6.55053 13.8758)">
<stop stop-color="#FFEC4C"/>
<stop offset="1" stop-color="#FFEC4C" stop-opacity="0"/>
</radialGradient>
<radialGradient id="paint19_radial_65_1910" cx="0" cy="0" r="1" gradientUnits="userSpaceOnUse" gradientTransform="translate(29.0676 38.4183) rotate(-40.2165) scale(9.11157 46.5816)">
<stop offset="0.597587" stop-color="#F09D2E" stop-opacity="0"/>
<stop offset="1" stop-color="#F09D2E"/>
</radialGradient>
<radialGradient id="paint20_radial_65_1910" cx="0" cy="0" r="1" gradientUnits="userSpaceOnUse" gradientTransform="translate(21.5988 27.3849) rotate(29.5034) scale(6.58947 4.95941)">
<stop stop-color="#D99F2B"/>
<stop offset="1" stop-color="#D99F2B" stop-opacity="0"/>
</radialGradient>
<radialGradient id="paint21_radial_65_1910" cx="0" cy="0" r="1" gradientUnits="userSpaceOnUse" gradientTransform="translate(25.0565 40.3398) rotate(-45.7639) scale(3.72921 16.8378)">
<stop stop-color="#A85300"/>
<stop offset="0.824742" stop-color="#A85300" stop-opacity="0"/>
</radialGradient>
<radialGradient id="paint22_radial_65_1910" cx="0" cy="0" r="1" gradientUnits="userSpaceOnUse" gradientTransform="translate(33.2665 46.6151) rotate(143.369) scale(8.45554 15.9096)">
<stop offset="0.563302" stop-color="#F09D2E" stop-opacity="0"/>
<stop offset="1" stop-color="#F09D2E"/>
</radialGradient>
<radialGradient id="paint23_radial_65_1910" cx="0" cy="0" r="1" gradientUnits="userSpaceOnUse" gradientTransform="translate(31.0025 40.2229) rotate(-9.97765) scale(6.97061 12.1097)">
<stop stop-color="#FFEC4C"/>
<stop offset="1" stop-color="#FFEC4C" stop-opacity="0"/>
</radialGradient>
<radialGradient id="paint24_radial_65_1910" cx="0" cy="0" r="1" gradientUnits="userSpaceOnUse" gradientTransform="translate(26.7107 47.9876) rotate(-34.3137) scale(9.03561 43.6233)">
<stop offset="0.597587" stop-color="#F09D2E" stop-opacity="0"/>
<stop offset="1" stop-color="#F09D2E"/>
</radialGradient>
<radialGradient id="paint25_radial_65_1910" cx="0" cy="0" r="1" gradientUnits="userSpaceOnUse" gradientTransform="translate(18.6993 38.4349) rotate(24.5478) scale(6.76283 4.48766)">
<stop stop-color="#D99F2B"/>
<stop offset="1" stop-color="#D99F2B" stop-opacity="0"/>
</radialGradient>
<linearGradient id="paint26_linear_65_1910" x1="33.6346" y1="62.0665" x2="27.9723" y2="50.4832" gradientUnits="userSpaceOnUse">
<stop stop-color="#FFC337"/>
<stop offset="1" stop-color="#FFC337" stop-opacity="0"/>
</linearGradient>
<radialGradient id="paint27_radial_65_1910" cx="0" cy="0" r="1" gradientUnits="userSpaceOnUse" gradientTransform="translate(53.8846 28.176) rotate(129.014) scale(39.093 63.2218)">
<stop offset="0.872168" stop-color="#F6814F" stop-opacity="0"/>
<stop offset="1" stop-color="#F7814F"/>
</radialGradient>
<radialGradient id="paint28_radial_65_1910" cx="0" cy="0" r="1" gradientUnits="userSpaceOnUse" gradientTransform="translate(45.7284 28.5979) rotate(76.293) scale(41.5425 45.5811)">
<stop offset="0.853453" stop-color="#F6814F" stop-opacity="0"/>
<stop offset="1" stop-color="#F7814F"/>
</radialGradient>
<radialGradient id="paint29_radial_65_1910" cx="0" cy="0" r="1" gradientUnits="userSpaceOnUse" gradientTransform="translate(55.1503 18.051) rotate(64.44) scale(7.1705 6.39238)">
<stop stop-color="#D99F2B"/>
<stop offset="1" stop-color="#D99F2B" stop-opacity="0"/>
</radialGradient>
<radialGradient id="paint30_radial_65_1910" cx="0" cy="0" r="1" gradientUnits="userSpaceOnUse" gradientTransform="translate(55.0449 31.7618) rotate(149.254) scale(2.7306 8.44951)">
<stop offset="0.200941" stop-color="#B4813D"/>
<stop offset="1" stop-color="#B4813D" stop-opacity="0"/>
</radialGradient>
<radialGradient id="paint31_radial_65_1910" cx="0" cy="0" r="1" gradientUnits="userSpaceOnUse" gradientTransform="translate(11.0088 38.6759) rotate(62.071) scale(11.9524 17.7259)">
<stop stop-color="#419FFD"/>
<stop offset="1" stop-color="#4B6DCB"/>
</radialGradient>
<radialGradient id="paint32_radial_65_1910" cx="0" cy="0" r="1" gradientUnits="userSpaceOnUse" gradientTransform="translate(7.62877 39.5665) rotate(2.38594) scale(1.68896 3.55444)">
<stop stop-color="#5486C7"/>
<stop offset="1" stop-color="#5486C7" stop-opacity="0"/>
</radialGradient>
<radialGradient id="paint33_radial_65_1910" cx="0" cy="0" r="1" gradientUnits="userSpaceOnUse" gradientTransform="translate(20.285 49.1993) rotate(111.801) scale(1.7039 5.01181)">
<stop stop-color="#5486C7"/>
<stop offset="1" stop-color="#5486C7" stop-opacity="0"/>
</radialGradient>
<radialGradient id="paint34_radial_65_1910" cx="0" cy="0" r="1" gradientUnits="userSpaceOnUse" gradientTransform="translate(11.8827 44.9104) rotate(94.7123) scale(9.45383 15.8957)">
<stop stop-color="#419FFD"/>
<stop offset="1" stop-color="#4B6DCB"/>
</radialGradient>
<radialGradient id="paint35_radial_65_1910" cx="0" cy="0" r="1" gradientUnits="userSpaceOnUse" gradientTransform="translate(3.87456 43.8209) rotate(2.38479) scale(1.61108 3.3889)">
<stop stop-color="#5486C7"/>
<stop offset="1" stop-color="#5486C7" stop-opacity="0"/>
</radialGradient>
<radialGradient id="paint36_radial_65_1910" cx="0" cy="0" r="1" gradientUnits="userSpaceOnUse" gradientTransform="translate(41.6424 5.27887) rotate(60.1958) scale(10.0422 14.893)">
<stop stop-color="#419FFD"/>
<stop offset="1" stop-color="#4B6DCB"/>
</radialGradient>
<radialGradient id="paint37_radial_65_1910" cx="0" cy="0" r="1" gradientUnits="userSpaceOnUse" gradientTransform="translate(37.5075 8.91529) rotate(18.8618) scale(1.44475 2.3254)">
<stop stop-color="#4D8AC1"/>
<stop offset="1" stop-color="#4D8AC1" stop-opacity="0"/>
</radialGradient>
<radialGradient id="paint38_radial_65_1910" cx="0" cy="0" r="1" gradientUnits="userSpaceOnUse" gradientTransform="translate(45.8704 1.71503) rotate(60.69) scale(12.4754 18.5064)">
<stop stop-color="#419FFD"/>
<stop offset="1" stop-color="#4B6DCB"/>
</radialGradient>
<radialGradient id="paint39_radial_65_1910" cx="0" cy="0" r="1" gradientUnits="userSpaceOnUse" gradientTransform="translate(41.9262 5.1821) rotate(18.8531) scale(1.37806 2.21722)">
<stop stop-color="#4D8AC1"/>
<stop offset="1" stop-color="#4D8AC1" stop-opacity="0"/>
</radialGradient>
</defs>
</svg>
