<svg width="72" height="72" viewBox="0 0 72 72" fill="none" xmlns="http://www.w3.org/2000/svg">
<g filter="url(#filter0_i_65_1925)">
<path d="M33.6937 22.5H55.4288C58.4888 22.5 61.2337 24.3225 62.4488 27.09C62.4522 27.1002 62.4555 27.1104 62.459 27.1205C62.5089 27.2311 62.5787 27.3898 62.6062 27.4725L66.2962 37.305C66.675 38.3299 66.9655 39.399 67.146 40.4685C67.1552 40.479 67.1644 40.4895 67.1737 40.5C67.3763 41.6025 67.4888 42.75 67.4888 43.8975V54H4.48877L4.78128 45C5.61377 42.39 8.06633 40.5 10.9688 40.5H17.9437L27.7762 25.8525C29.1038 23.8725 31.3087 22.59 33.6937 22.5Z" fill="url(#paint0_linear_65_1925)"/>
</g>
<path d="M33.6937 22.5H55.4288C58.4888 22.5 61.2337 24.3225 62.4488 27.09C62.4522 27.1002 62.4555 27.1104 62.459 27.1205C62.5089 27.2311 62.5787 27.3898 62.6062 27.4725L66.2962 37.305C66.675 38.3299 66.9655 39.399 67.146 40.4685C67.1552 40.479 67.1644 40.4895 67.1737 40.5C67.3763 41.6025 67.4888 42.75 67.4888 43.8975V54H4.48877L4.78128 45C5.61377 42.39 8.06633 40.5 10.9688 40.5H17.9437L27.7762 25.8525C29.1038 23.8725 31.3087 22.59 33.6937 22.5Z" fill="url(#paint1_radial_65_1925)"/>
<g filter="url(#filter1_f_65_1925)">
<path fill-rule="evenodd" clip-rule="evenodd" d="M22.55 40.1523C22.5607 39.4951 22.7081 38.0158 23.6564 37.2333C24.2685 36.7283 25.2402 36.6161 26.0366 36.6797C26.7006 36.7327 27.1017 37.3235 27.1017 37.9693V40.1523H22.55ZM22.55 40.1524C22.5607 40.8096 22.7081 42.2889 23.6564 43.0714C24.2685 43.5764 25.2402 43.6886 26.0366 43.625C26.7006 43.572 27.1017 42.9812 27.1017 42.3354V40.1524H22.55Z" fill="#94154B"/>
</g>
<path d="M26.9887 27L17.9218 40.5H33.8062C34.9987 40.5 35.9662 39.5325 35.9662 38.34V29.16C35.9662 27.9675 34.9987 27 33.8062 27H26.9887Z" fill="url(#paint2_linear_65_1925)"/>
<path d="M26.9887 27L17.9218 40.5H33.8062C34.9987 40.5 35.9662 39.5325 35.9662 38.34V29.16C35.9662 27.9675 34.9987 27 33.8062 27H26.9887Z" fill="url(#paint3_linear_65_1925)"/>
<path d="M26.9887 27L17.9218 40.5H33.8062C34.9987 40.5 35.9662 39.5325 35.9662 38.34V29.16C35.9662 27.9675 34.9987 27 33.8062 27H26.9887Z" fill="url(#paint4_linear_65_1925)"/>
<path d="M26.9887 27L17.9218 40.5H33.8062C34.9987 40.5 35.9662 39.5325 35.9662 38.34V29.16C35.9662 27.9675 34.9987 27 33.8062 27H26.9887Z" fill="url(#paint5_linear_65_1925)"/>
<path d="M64.3613 58.5H7.61627C5.88377 58.5 4.48877 57.105 4.48877 55.3725V54H67.4888V55.3725C67.4888 57.105 66.0938 58.5 64.3613 58.5Z" fill="#9989AA"/>
<path d="M64.3613 58.5H7.61627C5.88377 58.5 4.48877 57.105 4.48877 55.3725V54H67.4888V55.3725C67.4888 57.105 66.0938 58.5 64.3613 58.5Z" fill="url(#paint6_linear_65_1925)"/>
<path d="M64.3613 58.5H7.61627C5.88377 58.5 4.48877 57.105 4.48877 55.3725V54H67.4888V55.3725C67.4888 57.105 66.0938 58.5 64.3613 58.5Z" fill="url(#paint7_linear_65_1925)"/>
<path d="M64.3613 58.5H7.61627C5.88377 58.5 4.48877 57.105 4.48877 55.3725V54H67.4888V55.3725C67.4888 57.105 66.0938 58.5 64.3613 58.5Z" fill="url(#paint8_linear_65_1925)"/>
<g filter="url(#filter2_i_65_1925)">
<path d="M51.7612 40.5H42.6712C41.4787 40.5 40.5112 39.5325 40.5112 38.34V29.16C40.5112 27.9675 41.4787 27 42.6712 27H51.7612C52.9537 27 53.9212 27.9675 53.9212 29.16V38.34C53.9212 39.5325 52.9537 40.5 51.7612 40.5Z" fill="url(#paint9_linear_65_1925)"/>
</g>
<path d="M66.2962 37.305L62.6062 27.4725C62.5612 27.3375 62.4037 27 62.4037 27H60.7837C59.5012 27 58.4437 28.0575 58.4437 29.34V38.34C58.4437 39.5325 59.4112 40.5 60.6037 40.5H67.1512C66.9712 39.42 66.6787 38.34 66.2962 37.305Z" fill="url(#paint10_linear_65_1925)"/>
<path d="M66.2962 37.305L62.6062 27.4725C62.5612 27.3375 62.4037 27 62.4037 27H60.7837C59.5012 27 58.4437 28.0575 58.4437 29.34V38.34C58.4437 39.5325 59.4112 40.5 60.6037 40.5H67.1512C66.9712 39.42 66.6787 38.34 66.2962 37.305Z" fill="url(#paint11_linear_65_1925)"/>
<path d="M66.2962 37.305L62.6062 27.4725C62.5612 27.3375 62.4037 27 62.4037 27H60.7837C59.5012 27 58.4437 28.0575 58.4437 29.34V38.34C58.4437 39.5325 59.4112 40.5 60.6037 40.5H67.1512C66.9712 39.42 66.6787 38.34 66.2962 37.305Z" fill="url(#paint12_linear_65_1925)"/>
<path fill-rule="evenodd" clip-rule="evenodd" d="M27.7103 58.5C27.7792 58.0589 27.8149 57.6069 27.8149 57.1465C27.8149 52.341 23.9193 48.4453 19.1138 48.4453C14.3082 48.4453 10.4126 52.341 10.4126 57.1465C10.4126 57.6069 10.4484 58.0589 10.5172 58.5H27.7103Z" fill="url(#paint13_linear_65_1925)"/>
<path fill-rule="evenodd" clip-rule="evenodd" d="M61.4603 58.5C61.5292 58.0589 61.5649 57.6069 61.5649 57.1465C61.5649 52.341 57.6693 48.4453 52.8638 48.4453C48.0582 48.4453 44.1626 52.341 44.1626 57.1465C44.1626 57.6069 44.1984 58.0589 44.2672 58.5H61.4603Z" fill="url(#paint14_linear_65_1925)"/>
<path d="M8.96627 49.5V47.25C8.96627 46.0125 7.95377 45 6.71627 45H4.80377C4.57877 45.6525 4.48877 46.35 4.48877 47.8575V51.75H6.71627C7.95377 51.75 8.96627 50.7375 8.96627 49.5Z" fill="#F7DA4C"/>
<g filter="url(#filter3_ii_65_1925)">
<path d="M52.8638 65.25C57.213 65.25 60.7388 61.7242 60.7388 57.375C60.7388 53.0258 57.213 49.5 52.8638 49.5C48.5145 49.5 44.9888 53.0258 44.9888 57.375C44.9888 61.7242 48.5145 65.25 52.8638 65.25Z" fill="url(#paint15_linear_65_1925)"/>
<path d="M52.8638 65.25C57.213 65.25 60.7388 61.7242 60.7388 57.375C60.7388 53.0258 57.213 49.5 52.8638 49.5C48.5145 49.5 44.9888 53.0258 44.9888 57.375C44.9888 61.7242 48.5145 65.25 52.8638 65.25Z" fill="url(#paint16_radial_65_1925)"/>
</g>
<g filter="url(#filter4_ii_65_1925)">
<path d="M52.8638 60.75C54.7277 60.75 56.2388 59.239 56.2388 57.375C56.2388 55.511 54.7277 54 52.8638 54C50.9998 54 49.4888 55.511 49.4888 57.375C49.4888 59.239 50.9998 60.75 52.8638 60.75Z" fill="#D9C3F0"/>
</g>
<path d="M67.4662 45H66.3412C64.4287 45 62.8762 46.5975 62.9662 48.5325C63.0562 50.355 64.6313 51.75 66.4538 51.75H67.4662V45Z" fill="url(#paint17_radial_65_1925)"/>
<g filter="url(#filter5_f_65_1925)">
<circle cx="53.4531" cy="56.6838" r="5.55469" stroke="url(#paint18_linear_65_1925)" stroke-width="1.9125"/>
</g>
<g filter="url(#filter6_ii_65_1925)">
<path d="M19.1588 65.25C23.5081 65.25 27.0338 61.7242 27.0338 57.375C27.0338 53.0258 23.5081 49.5 19.1588 49.5C14.8096 49.5 11.2838 53.0258 11.2838 57.375C11.2838 61.7242 14.8096 65.25 19.1588 65.25Z" fill="url(#paint19_linear_65_1925)"/>
<path d="M19.1588 65.25C23.5081 65.25 27.0338 61.7242 27.0338 57.375C27.0338 53.0258 23.5081 49.5 19.1588 49.5C14.8096 49.5 11.2838 53.0258 11.2838 57.375C11.2838 61.7242 14.8096 65.25 19.1588 65.25Z" fill="url(#paint20_radial_65_1925)"/>
</g>
<g filter="url(#filter7_ii_65_1925)">
<path d="M19.1138 60.75C20.9777 60.75 22.4888 59.239 22.4888 57.375C22.4888 55.511 20.9777 54 19.1138 54C17.2498 54 15.7388 55.511 15.7388 57.375C15.7388 59.239 17.2498 60.75 19.1138 60.75Z" fill="#D9C3F0"/>
</g>
<g filter="url(#filter8_f_65_1925)">
<circle cx="19.5625" cy="56.6838" r="5.55469" stroke="url(#paint21_linear_65_1925)" stroke-width="1.9125"/>
</g>
<path fill-rule="evenodd" clip-rule="evenodd" d="M22.8414 39.3611C22.8521 38.7038 22.9995 37.2245 23.9478 36.4421C24.5599 35.937 25.5316 35.8249 26.328 35.8885C26.9921 35.9415 27.3931 36.5323 27.3931 37.178V39.3611H22.8414ZM22.8414 39.3611C22.8521 40.0183 22.9995 41.4976 23.9478 42.2801C24.5599 42.7852 25.5316 42.8973 26.328 42.8337C26.9921 42.7807 27.3931 42.1899 27.3931 41.5441V39.3611H22.8414Z" fill="url(#paint22_radial_65_1925)"/>
<path fill-rule="evenodd" clip-rule="evenodd" d="M22.8414 39.3611C22.8521 38.7038 22.9995 37.2245 23.9478 36.4421C24.5599 35.937 25.5316 35.8249 26.328 35.8885C26.9921 35.9415 27.3931 36.5323 27.3931 37.178V39.3611H22.8414ZM22.8414 39.3611C22.8521 40.0183 22.9995 41.4976 23.9478 42.2801C24.5599 42.7852 25.5316 42.8973 26.328 42.8337C26.9921 42.7807 27.3931 42.1899 27.3931 41.5441V39.3611H22.8414Z" fill="url(#paint23_linear_65_1925)"/>
<g filter="url(#filter9_f_65_1925)">
<path d="M26.7458 36.5569V41.8831C25.1288 40.6174 24.783 37.7405 24.8298 36.6799C25.4908 36.4409 26.3826 36.4983 26.7458 36.5569Z" fill="url(#paint24_radial_65_1925)"/>
</g>
<defs>
<filter id="filter0_i_65_1925" x="3.36377" y="22.5" width="64.125" height="31.5" filterUnits="userSpaceOnUse" color-interpolation-filters="sRGB">
<feFlood flood-opacity="0" result="BackgroundImageFix"/>
<feBlend mode="normal" in="SourceGraphic" in2="BackgroundImageFix" result="shape"/>
<feColorMatrix in="SourceAlpha" type="matrix" values="0 0 0 0 0 0 0 0 0 0 0 0 0 0 0 0 0 0 127 0" result="hardAlpha"/>
<feOffset dx="-1.125"/>
<feGaussianBlur stdDeviation="0.5625"/>
<feComposite in2="hardAlpha" operator="arithmetic" k2="-1" k3="1"/>
<feColorMatrix type="matrix" values="0 0 0 0 0.745098 0 0 0 0 0.137255 0 0 0 0 0.192157 0 0 0 1 0"/>
<feBlend mode="normal" in2="shape" result="effect1_innerShadow_65_1925"/>
</filter>
<filter id="filter1_f_65_1925" x="21.65" y="35.7636" width="6.3517" height="8.77754" filterUnits="userSpaceOnUse" color-interpolation-filters="sRGB">
<feFlood flood-opacity="0" result="BackgroundImageFix"/>
<feBlend mode="normal" in="SourceGraphic" in2="BackgroundImageFix" result="shape"/>
<feGaussianBlur stdDeviation="0.45" result="effect1_foregroundBlur_65_1925"/>
</filter>
<filter id="filter2_i_65_1925" x="38.8237" y="27" width="15.0975" height="15.75" filterUnits="userSpaceOnUse" color-interpolation-filters="sRGB">
<feFlood flood-opacity="0" result="BackgroundImageFix"/>
<feBlend mode="normal" in="SourceGraphic" in2="BackgroundImageFix" result="shape"/>
<feColorMatrix in="SourceAlpha" type="matrix" values="0 0 0 0 0 0 0 0 0 0 0 0 0 0 0 0 0 0 127 0" result="hardAlpha"/>
<feOffset dx="-1.6875" dy="2.25"/>
<feGaussianBlur stdDeviation="1.125"/>
<feComposite in2="hardAlpha" operator="arithmetic" k2="-1" k3="1"/>
<feColorMatrix type="matrix" values="0 0 0 0 0.168627 0 0 0 0 0.45098 0 0 0 0 0.964706 0 0 0 1 0"/>
<feBlend mode="normal" in2="shape" result="effect1_innerShadow_65_1925"/>
</filter>
<filter id="filter3_ii_65_1925" x="44.9888" y="49.5" width="15.75" height="16.0875" filterUnits="userSpaceOnUse" color-interpolation-filters="sRGB">
<feFlood flood-opacity="0" result="BackgroundImageFix"/>
<feBlend mode="normal" in="SourceGraphic" in2="BackgroundImageFix" result="shape"/>
<feColorMatrix in="SourceAlpha" type="matrix" values="0 0 0 0 0 0 0 0 0 0 0 0 0 0 0 0 0 0 127 0" result="hardAlpha"/>
<feOffset/>
<feGaussianBlur stdDeviation="1.125"/>
<feComposite in2="hardAlpha" operator="arithmetic" k2="-1" k3="1"/>
<feColorMatrix type="matrix" values="0 0 0 0 0.145098 0 0 0 0 0.0823529 0 0 0 0 0.215686 0 0 0 1 0"/>
<feBlend mode="normal" in2="shape" result="effect1_innerShadow_65_1925"/>
<feColorMatrix in="SourceAlpha" type="matrix" values="0 0 0 0 0 0 0 0 0 0 0 0 0 0 0 0 0 0 127 0" result="hardAlpha"/>
<feOffset dy="0.3375"/>
<feGaussianBlur stdDeviation="0.28125"/>
<feComposite in2="hardAlpha" operator="arithmetic" k2="-1" k3="1"/>
<feColorMatrix type="matrix" values="0 0 0 0 0.207843 0 0 0 0 0.0313726 0 0 0 0 0.235294 0 0 0 1 0"/>
<feBlend mode="normal" in2="effect1_innerShadow_65_1925" result="effect2_innerShadow_65_1925"/>
</filter>
<filter id="filter4_ii_65_1925" x="49.3763" y="53.8875" width="6.975" height="6.975" filterUnits="userSpaceOnUse" color-interpolation-filters="sRGB">
<feFlood flood-opacity="0" result="BackgroundImageFix"/>
<feBlend mode="normal" in="SourceGraphic" in2="BackgroundImageFix" result="shape"/>
<feColorMatrix in="SourceAlpha" type="matrix" values="0 0 0 0 0 0 0 0 0 0 0 0 0 0 0 0 0 0 127 0" result="hardAlpha"/>
<feOffset dx="0.1125" dy="-0.1125"/>
<feGaussianBlur stdDeviation="0.1125"/>
<feComposite in2="hardAlpha" operator="arithmetic" k2="-1" k3="1"/>
<feColorMatrix type="matrix" values="0 0 0 0 0.478431 0 0 0 0 0.364706 0 0 0 0 0.584314 0 0 0 1 0"/>
<feBlend mode="normal" in2="shape" result="effect1_innerShadow_65_1925"/>
<feColorMatrix in="SourceAlpha" type="matrix" values="0 0 0 0 0 0 0 0 0 0 0 0 0 0 0 0 0 0 127 0" result="hardAlpha"/>
<feOffset dx="-0.1125" dy="0.1125"/>
<feGaussianBlur stdDeviation="0.1125"/>
<feComposite in2="hardAlpha" operator="arithmetic" k2="-1" k3="1"/>
<feColorMatrix type="matrix" values="0 0 0 0 0.807843 0 0 0 0 0.764706 0 0 0 0 0.858824 0 0 0 1 0"/>
<feBlend mode="normal" in2="effect1_innerShadow_65_1925" result="effect2_innerShadow_65_1925"/>
</filter>
<filter id="filter5_f_65_1925" x="45.2547" y="48.4854" width="16.3969" height="16.3969" filterUnits="userSpaceOnUse" color-interpolation-filters="sRGB">
<feFlood flood-opacity="0" result="BackgroundImageFix"/>
<feBlend mode="normal" in="SourceGraphic" in2="BackgroundImageFix" result="shape"/>
<feGaussianBlur stdDeviation="0.84375" result="effect1_foregroundBlur_65_1925"/>
</filter>
<filter id="filter6_ii_65_1925" x="11.2838" y="49.5" width="15.75" height="16.0875" filterUnits="userSpaceOnUse" color-interpolation-filters="sRGB">
<feFlood flood-opacity="0" result="BackgroundImageFix"/>
<feBlend mode="normal" in="SourceGraphic" in2="BackgroundImageFix" result="shape"/>
<feColorMatrix in="SourceAlpha" type="matrix" values="0 0 0 0 0 0 0 0 0 0 0 0 0 0 0 0 0 0 127 0" result="hardAlpha"/>
<feOffset/>
<feGaussianBlur stdDeviation="1.125"/>
<feComposite in2="hardAlpha" operator="arithmetic" k2="-1" k3="1"/>
<feColorMatrix type="matrix" values="0 0 0 0 0.145098 0 0 0 0 0.0823529 0 0 0 0 0.215686 0 0 0 1 0"/>
<feBlend mode="normal" in2="shape" result="effect1_innerShadow_65_1925"/>
<feColorMatrix in="SourceAlpha" type="matrix" values="0 0 0 0 0 0 0 0 0 0 0 0 0 0 0 0 0 0 127 0" result="hardAlpha"/>
<feOffset dy="0.3375"/>
<feGaussianBlur stdDeviation="0.28125"/>
<feComposite in2="hardAlpha" operator="arithmetic" k2="-1" k3="1"/>
<feColorMatrix type="matrix" values="0 0 0 0 0.207843 0 0 0 0 0.0313726 0 0 0 0 0.235294 0 0 0 1 0"/>
<feBlend mode="normal" in2="effect1_innerShadow_65_1925" result="effect2_innerShadow_65_1925"/>
</filter>
<filter id="filter7_ii_65_1925" x="15.6263" y="53.8875" width="6.975" height="6.975" filterUnits="userSpaceOnUse" color-interpolation-filters="sRGB">
<feFlood flood-opacity="0" result="BackgroundImageFix"/>
<feBlend mode="normal" in="SourceGraphic" in2="BackgroundImageFix" result="shape"/>
<feColorMatrix in="SourceAlpha" type="matrix" values="0 0 0 0 0 0 0 0 0 0 0 0 0 0 0 0 0 0 127 0" result="hardAlpha"/>
<feOffset dx="0.1125" dy="-0.1125"/>
<feGaussianBlur stdDeviation="0.1125"/>
<feComposite in2="hardAlpha" operator="arithmetic" k2="-1" k3="1"/>
<feColorMatrix type="matrix" values="0 0 0 0 0.478431 0 0 0 0 0.364706 0 0 0 0 0.584314 0 0 0 1 0"/>
<feBlend mode="normal" in2="shape" result="effect1_innerShadow_65_1925"/>
<feColorMatrix in="SourceAlpha" type="matrix" values="0 0 0 0 0 0 0 0 0 0 0 0 0 0 0 0 0 0 127 0" result="hardAlpha"/>
<feOffset dx="-0.1125" dy="0.1125"/>
<feGaussianBlur stdDeviation="0.1125"/>
<feComposite in2="hardAlpha" operator="arithmetic" k2="-1" k3="1"/>
<feColorMatrix type="matrix" values="0 0 0 0 0.807843 0 0 0 0 0.764706 0 0 0 0 0.858824 0 0 0 1 0"/>
<feBlend mode="normal" in2="effect1_innerShadow_65_1925" result="effect2_innerShadow_65_1925"/>
</filter>
<filter id="filter8_f_65_1925" x="11.3641" y="48.4854" width="16.3969" height="16.3969" filterUnits="userSpaceOnUse" color-interpolation-filters="sRGB">
<feFlood flood-opacity="0" result="BackgroundImageFix"/>
<feBlend mode="normal" in="SourceGraphic" in2="BackgroundImageFix" result="shape"/>
<feGaussianBlur stdDeviation="0.84375" result="effect1_foregroundBlur_65_1925"/>
</filter>
<filter id="filter9_f_65_1925" x="24.3758" y="36.0554" width="2.82004" height="6.27769" filterUnits="userSpaceOnUse" color-interpolation-filters="sRGB">
<feFlood flood-opacity="0" result="BackgroundImageFix"/>
<feBlend mode="normal" in="SourceGraphic" in2="BackgroundImageFix" result="shape"/>
<feGaussianBlur stdDeviation="0.225" result="effect1_foregroundBlur_65_1925"/>
</filter>
<linearGradient id="paint0_linear_65_1925" x1="5.81042" y1="41.637" x2="38.8573" y2="41.637" gradientUnits="userSpaceOnUse">
<stop stop-color="#DF378A"/>
<stop offset="1" stop-color="#ED334E"/>
</linearGradient>
<radialGradient id="paint1_radial_65_1925" cx="0" cy="0" r="1" gradientUnits="userSpaceOnUse" gradientTransform="translate(61.567 24.3121) rotate(136.332) scale(4.90811 8.63032)">
<stop stop-color="#FF4D5A"/>
<stop offset="1" stop-color="#FF4D5A" stop-opacity="0"/>
</radialGradient>
<linearGradient id="paint2_linear_65_1925" x1="33.0917" y1="30.2463" x2="20.5761" y2="40.5" gradientUnits="userSpaceOnUse">
<stop stop-color="#3398F0"/>
<stop offset="1" stop-color="#57E8FF"/>
</linearGradient>
<linearGradient id="paint3_linear_65_1925" x1="35.9662" y1="38.6838" x2="31.826" y2="38.6838" gradientUnits="userSpaceOnUse">
<stop stop-color="#2372D7"/>
<stop offset="1" stop-color="#2372D7" stop-opacity="0"/>
</linearGradient>
<linearGradient id="paint4_linear_65_1925" x1="31.826" y1="25.7463" x2="31.826" y2="38.8245" gradientUnits="userSpaceOnUse">
<stop offset="0.225806" stop-color="#2372D7"/>
<stop offset="1" stop-color="#2372D7" stop-opacity="0"/>
</linearGradient>
<linearGradient id="paint5_linear_65_1925" x1="17.9218" y1="40.5" x2="26.944" y2="40.5" gradientUnits="userSpaceOnUse">
<stop stop-color="#5EEEFF"/>
<stop offset="0.652683" stop-color="#40ACF4"/>
<stop offset="1" stop-color="#40ACF4" stop-opacity="0"/>
</linearGradient>
<linearGradient id="paint6_linear_65_1925" x1="4.48877" y1="56.25" x2="6.49088" y2="56.25" gradientUnits="userSpaceOnUse">
<stop stop-color="#847F89"/>
<stop offset="1" stop-color="#847F89" stop-opacity="0"/>
</linearGradient>
<linearGradient id="paint7_linear_65_1925" x1="67.4888" y1="56.25" x2="63.9681" y2="56.25" gradientUnits="userSpaceOnUse">
<stop stop-color="#847F89"/>
<stop offset="1" stop-color="#847F89" stop-opacity="0"/>
</linearGradient>
<linearGradient id="paint8_linear_65_1925" x1="35.9888" y1="58.5" x2="35.9888" y2="56.6135" gradientUnits="userSpaceOnUse">
<stop stop-color="#734995"/>
<stop offset="1" stop-color="#734995" stop-opacity="0"/>
</linearGradient>
<linearGradient id="paint9_linear_65_1925" x1="49.4041" y1="31.3713" x2="40.5112" y2="41.7776" gradientUnits="userSpaceOnUse">
<stop stop-color="#40A4FF"/>
<stop offset="1" stop-color="#5BF6FF"/>
</linearGradient>
<linearGradient id="paint10_linear_65_1925" x1="64.5917" y1="33.75" x2="57.701" y2="40.5" gradientUnits="userSpaceOnUse">
<stop stop-color="#3DA7FF"/>
<stop offset="1" stop-color="#4CF0F8"/>
</linearGradient>
<linearGradient id="paint11_linear_65_1925" x1="59.4237" y1="28.2424" x2="60.9706" y2="29.9651" gradientUnits="userSpaceOnUse">
<stop stop-color="#2588DA"/>
<stop offset="1" stop-color="#2588DA" stop-opacity="0"/>
</linearGradient>
<linearGradient id="paint12_linear_65_1925" x1="68.037" y1="40.5" x2="65.4354" y2="38.051" gradientUnits="userSpaceOnUse">
<stop stop-color="#2588DA"/>
<stop offset="1" stop-color="#2588DA" stop-opacity="0"/>
</linearGradient>
<linearGradient id="paint13_linear_65_1925" x1="19.1138" y1="48.4453" x2="19.1138" y2="58.2102" gradientUnits="userSpaceOnUse">
<stop stop-color="#64023B"/>
<stop offset="1" stop-color="#7E0B55"/>
</linearGradient>
<linearGradient id="paint14_linear_65_1925" x1="52.8638" y1="48.4453" x2="52.8638" y2="58.2102" gradientUnits="userSpaceOnUse">
<stop stop-color="#64023B"/>
<stop offset="1" stop-color="#7E0B55"/>
</linearGradient>
<linearGradient id="paint15_linear_65_1925" x1="49.2325" y1="55.3948" x2="61.0609" y2="55.3948" gradientUnits="userSpaceOnUse">
<stop offset="0.239044" stop-color="#34214F"/>
<stop offset="1" stop-color="#241337"/>
</linearGradient>
<radialGradient id="paint16_radial_65_1925" cx="0" cy="0" r="1" gradientUnits="userSpaceOnUse" gradientTransform="translate(52.8638 56.6703) rotate(-65.5366) scale(4.29682 4.48787)">
<stop offset="0.523134" stop-color="#2D114D"/>
<stop offset="1" stop-color="#2B1249" stop-opacity="0"/>
</radialGradient>
<radialGradient id="paint17_radial_65_1925" cx="0" cy="0" r="1" gradientUnits="userSpaceOnUse" gradientTransform="translate(67.4663 51.006) rotate(-120.532) scale(5.87694)">
<stop offset="0.418213" stop-color="#D32374"/>
<stop offset="1" stop-color="#B60160"/>
</radialGradient>
<linearGradient id="paint18_linear_65_1925" x1="56.4795" y1="52.2768" x2="49.7313" y2="61.5958" gradientUnits="userSpaceOnUse">
<stop offset="0.0830122" stop-color="#615B6B"/>
<stop offset="0.390771" stop-color="#615B6B" stop-opacity="0"/>
<stop offset="0.692394" stop-color="#615B6B" stop-opacity="0"/>
<stop offset="0.934982" stop-color="#615B6B"/>
</linearGradient>
<linearGradient id="paint19_linear_65_1925" x1="15.5275" y1="55.3948" x2="27.356" y2="55.3948" gradientUnits="userSpaceOnUse">
<stop offset="0.239044" stop-color="#34214F"/>
<stop offset="1" stop-color="#241337"/>
</linearGradient>
<radialGradient id="paint20_radial_65_1925" cx="0" cy="0" r="1" gradientUnits="userSpaceOnUse" gradientTransform="translate(19.1588 56.6703) rotate(-65.5366) scale(4.29682 4.48787)">
<stop offset="0.523134" stop-color="#2D114D"/>
<stop offset="1" stop-color="#2B1249" stop-opacity="0"/>
</radialGradient>
<linearGradient id="paint21_linear_65_1925" x1="22.5889" y1="52.2768" x2="15.8406" y2="61.5958" gradientUnits="userSpaceOnUse">
<stop offset="0.0830122" stop-color="#615B6B"/>
<stop offset="0.390771" stop-color="#615B6B" stop-opacity="0"/>
<stop offset="0.692394" stop-color="#615B6B" stop-opacity="0"/>
<stop offset="0.934982" stop-color="#615B6B"/>
</linearGradient>
<radialGradient id="paint22_radial_65_1925" cx="0" cy="0" r="1" gradientUnits="userSpaceOnUse" gradientTransform="translate(24.7069 41.4612) rotate(-46.2263) scale(4.06541 10.8509)">
<stop stop-color="#3A2557"/>
<stop offset="1" stop-color="#281F4A"/>
</radialGradient>
<linearGradient id="paint23_linear_65_1925" x1="26.6815" y1="39.9095" x2="27.3931" y2="39.9095" gradientUnits="userSpaceOnUse">
<stop stop-color="#281F4A" stop-opacity="0"/>
<stop offset="1" stop-color="#281F4A"/>
</linearGradient>
<radialGradient id="paint24_radial_65_1925" cx="0" cy="0" r="1" gradientUnits="userSpaceOnUse" gradientTransform="translate(26.7458 36.8381) rotate(90) scale(5.04492 1.8545)">
<stop stop-color="#5E5866"/>
<stop offset="1" stop-color="#5E5866" stop-opacity="0"/>
</radialGradient>
</defs>
</svg>
