<svg width="96" height="96" viewBox="0 0 96 96" fill="none" xmlns="http://www.w3.org/2000/svg">
<path d="M83.8851 72.1955V13.2656C83.8851 8.95309 79.8773 6.84372 76.5961 9.89059L64.5552 21.7473C63.994 22.2999 63.2379 22.6097 62.4503 22.6097H33.6613C32.8736 22.6097 32.1176 22.2999 31.5564 21.7473L19.5155 9.89059C16.2342 6.84372 12.2264 8.95309 12.2264 13.2656V72.1955C12.2264 78.8309 17.5062 84.2109 24.018 84.2109H72.0936C78.6053 84.2109 83.8851 78.8309 83.8851 72.1955Z" fill="url(#paint0_linear_130_4303)"/>
<path d="M83.8851 72.1955V13.2656C83.8851 8.95309 79.8773 6.84372 76.5961 9.89059L64.5552 21.7473C63.994 22.2999 63.2379 22.6097 62.4503 22.6097H33.6613C32.8736 22.6097 32.1176 22.2999 31.5564 21.7473L19.5155 9.89059C16.2342 6.84372 12.2264 8.95309 12.2264 13.2656V72.1955C12.2264 78.8309 17.5062 84.2109 24.018 84.2109H72.0936C78.6053 84.2109 83.8851 78.8309 83.8851 72.1955Z" fill="url(#paint1_linear_130_4303)"/>
<path d="M83.8851 72.1955V13.2656C83.8851 8.95309 79.8773 6.84372 76.5961 9.89059L64.5552 21.7473C63.994 22.2999 63.2379 22.6097 62.4503 22.6097H33.6613C32.8736 22.6097 32.1176 22.2999 31.5564 21.7473L19.5155 9.89059C16.2342 6.84372 12.2264 8.95309 12.2264 13.2656V72.1955C12.2264 78.8309 17.5062 84.2109 24.018 84.2109H72.0936C78.6053 84.2109 83.8851 78.8309 83.8851 72.1955Z" fill="url(#paint2_linear_130_4303)"/>
<path d="M83.8851 72.1955V13.2656C83.8851 8.95309 79.8773 6.84372 76.5961 9.89059L64.5552 21.7473C63.994 22.2999 63.2379 22.6097 62.4503 22.6097H33.6613C32.8736 22.6097 32.1176 22.2999 31.5564 21.7473L19.5155 9.89059C16.2342 6.84372 12.2264 8.95309 12.2264 13.2656V72.1955C12.2264 78.8309 17.5062 84.2109 24.018 84.2109H72.0936C78.6053 84.2109 83.8851 78.8309 83.8851 72.1955Z" fill="url(#paint3_linear_130_4303)"/>
<path d="M83.8851 72.1955V13.2656C83.8851 8.95309 79.8773 6.84372 76.5961 9.89059L64.5552 21.7473C63.994 22.2999 63.2379 22.6097 62.4503 22.6097H33.6613C32.8736 22.6097 32.1176 22.2999 31.5564 21.7473L19.5155 9.89059C16.2342 6.84372 12.2264 8.95309 12.2264 13.2656V72.1955C12.2264 78.8309 17.5062 84.2109 24.018 84.2109H72.0936C78.6053 84.2109 83.8851 78.8309 83.8851 72.1955Z" fill="url(#paint4_linear_130_4303)"/>
<path d="M83.8851 72.1955V13.2656C83.8851 8.95309 79.8773 6.84372 76.5961 9.89059L64.5552 21.7473C63.994 22.2999 63.2379 22.6097 62.4503 22.6097H33.6613C32.8736 22.6097 32.1176 22.2999 31.5564 21.7473L19.5155 9.89059C16.2342 6.84372 12.2264 8.95309 12.2264 13.2656V72.1955C12.2264 78.8309 17.5062 84.2109 24.018 84.2109H72.0936C78.6053 84.2109 83.8851 78.8309 83.8851 72.1955Z" fill="url(#paint5_radial_130_4303)"/>
<g filter="url(#filter0_f_130_4303)">
<rect x="15.1622" y="59.4609" width="8.18076" height="11.094" rx="4.09038" fill="#D67908"/>
</g>
<g filter="url(#filter1_f_130_4303)">
<path d="M62.2523 24.6019C53.3026 24.9245 77.9319 39.4633 77.9319 39.4633L81.3069 12.2758C81.471 10.893 80.2144 9.41525 77.557 11.8828C77.557 11.8828 66.0774 23.1869 65.5161 23.7395C64.9549 24.2921 64.292 24.4863 63.4112 24.6019C62.9625 24.6608 62.7046 24.5856 62.2523 24.6019Z" fill="url(#paint6_linear_130_4303)"/>
</g>
<path d="M18.3978 34.5103L26.7978 26.7103C27.7578 25.8103 27.7578 24.3703 26.7978 23.5003L17.7537 15.4688C16.6053 14.461 14.2278 14.7891 14.2278 17.2903V32.8903C14.2278 35.3906 16.8678 35.9503 18.3978 34.5103Z" fill="url(#paint7_linear_130_4303)"/>
<g filter="url(#filter2_f_130_4303)">
<path d="M79.4725 10.9555C79.6463 10.5245 80.0645 10.2422 80.5293 10.2422V10.2422C81.1586 10.2422 81.6687 10.7523 81.6687 11.3816V18.1172L77.4164 16.0547L79.4725 10.9555Z" fill="url(#paint8_linear_130_4303)"/>
</g>
<g filter="url(#filter3_f_130_4303)">
<path d="M16.3383 11.1797L26.4631 20.8383C28.7255 22.9965 28.7679 26.5938 26.557 28.8047V28.8047" stroke="#FFDF70" stroke-width="3" stroke-linecap="round"/>
</g>
<g filter="url(#filter4_f_130_4303)">
<path d="M44.4162 55.9507L44.6092 55.9057C46.03 55.5743 47.5097 55.5897 48.9232 55.9507V55.9507C50.4865 56.2451 51.4198 58.0371 50.0998 59.3271L48.4474 61.1318C47.6374 61.9418 45.859 61.9418 45.049 61.1318L43.4201 59.3271C42.0724 57.8036 42.9162 56.2802 44.4162 55.9507Z" fill="url(#paint9_linear_130_4303)"/>
</g>
<path d="M45.6795 54.6197L45.8724 54.5747C47.2932 54.2433 48.7729 54.2587 50.1865 54.6197V54.6197C51.7498 54.9141 52.6831 56.7061 51.3631 57.9961L49.7107 59.8008C48.9007 60.6108 47.1223 60.6108 46.3123 59.8008L44.6834 57.9961C43.3357 56.4727 44.1795 54.9492 45.6795 54.6197Z" fill="url(#paint10_radial_130_4303)"/>
<g filter="url(#filter5_f_130_4303)">
<ellipse cx="48.8109" cy="56.2241" rx="2.28516" ry="0.822774" fill="url(#paint11_linear_130_4303)"/>
</g>
<g filter="url(#filter6_f_130_4303)">
<path d="M74.3553 62.6768L85.7693 57.2393" stroke="url(#paint12_linear_130_4303)" stroke-width="3.6" stroke-miterlimit="10" stroke-linecap="round"/>
</g>
<g filter="url(#filter7_f_130_4303)">
<path d="M74.3553 68.7705L80.1351 72.8672" stroke="url(#paint13_linear_130_4303)" stroke-width="3.6" stroke-miterlimit="10" stroke-linecap="round"/>
</g>
<path d="M76.699 61.6172L88.1131 56.1797" stroke="url(#paint14_linear_130_4303)" stroke-width="3.6" stroke-miterlimit="10" stroke-linecap="round"/>
<g filter="url(#filter8_f_130_4303)">
<path d="M76.699 62.1328L88.1131 56.6953" stroke="#FF8485" stroke-width="0.9" stroke-miterlimit="10" stroke-linecap="round"/>
</g>
<g filter="url(#filter9_f_130_4303)">
<ellipse cx="88.8176" cy="55.7416" rx="0.55152" ry="0.497481" transform="rotate(-22.7455 88.8176 55.7416)" fill="#FFDD86"/>
</g>
<path d="M76.6909 68.0078L88.0956 73.465" stroke="url(#paint15_linear_130_4303)" stroke-width="3.6" stroke-miterlimit="10" stroke-linecap="round"/>
<g filter="url(#filter10_f_130_4303)">
<path d="M76.4952 67.6473L87.8999 73.1045" stroke="#FF8485" stroke-width="0.9" stroke-miterlimit="10" stroke-linecap="round"/>
</g>
<g filter="url(#filter11_f_130_4303)">
<ellipse cx="88.6214" cy="73.1045" rx="0.55152" ry="0.497481" transform="rotate(28.2981 88.6214 73.1045)" fill="#FFDD86"/>
</g>
<path d="M19.5844 68.043L8.17968 73.5001" stroke="url(#paint16_linear_130_4303)" stroke-width="3.6" stroke-miterlimit="10" stroke-linecap="round"/>
<g filter="url(#filter12_f_130_4303)">
<path d="M19.78 67.6825L8.37533 73.1397" stroke="#FF8485" stroke-width="0.9" stroke-miterlimit="10" stroke-linecap="round"/>
</g>
<g filter="url(#filter13_f_130_4303)">
<ellipse rx="0.55152" ry="0.497481" transform="matrix(-0.942776 -0.333427 -0.333427 0.942776 19.9384 67.5147)" fill="#FFDD86"/>
</g>
<path d="M19.6192 61.5729L8.17845 56.1918" stroke="url(#paint17_linear_130_4303)" stroke-width="3.6" stroke-miterlimit="10" stroke-linecap="round"/>
<g filter="url(#filter14_f_130_4303)">
<path d="M20.0221 61.4965L8.58134 56.1153" stroke="#FF8485" stroke-width="0.9" stroke-miterlimit="10" stroke-linecap="round"/>
</g>
<g filter="url(#filter15_f_130_4303)">
<ellipse rx="0.55152" ry="0.497481" transform="matrix(-0.338111 -0.941106 -0.941106 0.338111 20.2523 61.5131)" fill="#FFDD86"/>
</g>
<path d="M61.2537 63.1641C61.2537 70.4841 55.3081 76.1719 47.9881 76.1719C40.6681 76.1719 35.0506 70.3434 35.0506 63.0234C35.0506 63.0234 40.4647 69.4219 47.9881 63.0234C55.0428 69.2578 61.2537 63.1641 61.2537 63.1641Z" fill="url(#paint18_linear_130_4303)"/>
<g filter="url(#filter16_f_130_4303)">
<path d="M58.2949 55.4045C57.0194 55.4045 55.969 54.3753 55.969 53.1255V48.8616C55.969 47.6119 57.0194 46.5826 58.2949 46.5826C59.5704 46.5826 60.6208 47.6119 60.6208 48.8616V53.1255C60.6208 54.4121 59.5704 55.4045 58.2949 55.4045Z" fill="url(#paint19_linear_130_4303)"/>
</g>
<path d="M59.9121 54.2578C58.6366 54.2578 57.5862 53.2286 57.5862 51.9788V47.7149C57.5862 46.4651 58.6366 45.4359 59.9121 45.4359C61.1877 45.4359 62.2381 46.4651 62.2381 47.7149V51.9788C62.2381 53.2653 61.1877 54.2578 59.9121 54.2578Z" fill="url(#paint20_linear_130_4303)"/>
<path d="M59.9121 54.2578C58.6366 54.2578 57.5862 53.2286 57.5862 51.9788V47.7149C57.5862 46.4651 58.6366 45.4359 59.9121 45.4359C61.1877 45.4359 62.2381 46.4651 62.2381 47.7149V51.9788C62.2381 53.2653 61.1877 54.2578 59.9121 54.2578Z" fill="url(#paint21_linear_130_4303)"/>
<g filter="url(#filter17_f_130_4303)">
<path d="M34.8162 55.4045C33.5407 55.4045 32.4903 54.3753 32.4903 53.1255V48.8616C32.4903 47.6119 33.5407 46.5826 34.8162 46.5826C36.0917 46.5826 37.1422 47.6119 37.1422 48.8616V53.1255C37.1422 54.4121 36.0917 55.4045 34.8162 55.4045Z" fill="url(#paint22_linear_130_4303)"/>
</g>
<path d="M36.087 54.2578C34.8115 54.2578 33.761 53.2286 33.761 51.9788V47.7149C33.761 46.4651 34.8115 45.4359 36.087 45.4359C37.3625 45.4359 38.4129 46.4651 38.4129 47.7149V51.9788C38.4129 53.2653 37.3625 54.2578 36.087 54.2578Z" fill="url(#paint23_linear_130_4303)"/>
<path d="M36.087 54.2578C34.8115 54.2578 33.761 53.2286 33.761 51.9788V47.7149C33.761 46.4651 34.8115 45.4359 36.087 45.4359C37.3625 45.4359 38.4129 46.4651 38.4129 47.7149V51.9788C38.4129 53.2653 37.3625 54.2578 36.087 54.2578Z" fill="url(#paint24_linear_130_4303)"/>
<g filter="url(#filter18_f_130_4303)">
<circle cx="60.6209" cy="47.2913" r="0.708684" fill="#775B70"/>
</g>
<g filter="url(#filter19_f_130_4303)">
<circle cx="36.7957" cy="47.2913" r="0.708684" fill="#775B70"/>
</g>
<g filter="url(#filter20_f_130_4303)">
<rect x="66.307" y="24.3047" width="13.7553" height="42.5571" fill="url(#paint25_linear_130_4303)"/>
</g>
<path d="M77.4987 34.5103L69.0987 26.7103C68.1387 25.8103 68.1387 24.3703 69.0987 23.5003L78.1428 15.4688C79.2912 14.461 81.6687 14.7891 81.6687 17.2903V32.8903C81.6687 35.3906 79.0287 35.9503 77.4987 34.5103Z" fill="#FFB915"/>
<path d="M77.4987 34.5103L69.0987 26.7103C68.1387 25.8103 68.1387 24.3703 69.0987 23.5003L78.1428 15.4688C79.2912 14.461 81.6687 14.7891 81.6687 17.2903V32.8903C81.6687 35.3906 79.0287 35.9503 77.4987 34.5103Z" fill="url(#paint26_linear_130_4303)"/>
<g filter="url(#filter21_f_130_4303)">
<path d="M79.9008 16.1016L69.0258 25.4766L79.6664 33.9141L79.9008 16.1016Z" fill="url(#paint27_radial_130_4303)"/>
</g>
<g filter="url(#filter22_f_130_4303)">
<path d="M71.182 24.8672L78.7758 33.0703" stroke="url(#paint28_linear_130_4303)" stroke-width="1.5" stroke-linecap="round"/>
</g>
<g filter="url(#filter23_f_130_4303)">
<path d="M15.6696 16.4978V34.2209L26.0759 24.9529L15.6696 16.4978Z" fill="#FEB33E"/>
</g>
<g filter="url(#filter24_f_130_4303)">
<path d="M15.6696 17.1797V32.7422" stroke="#FFE7A3" stroke-width="0.45" stroke-linecap="round"/>
</g>
<defs>
<filter id="filter0_f_130_4303" x="10.6622" y="54.9609" width="17.1808" height="20.094" filterUnits="userSpaceOnUse" color-interpolation-filters="sRGB">
<feFlood flood-opacity="0" result="BackgroundImageFix"/>
<feBlend mode="normal" in="SourceGraphic" in2="BackgroundImageFix" result="shape"/>
<feGaussianBlur stdDeviation="2.25" result="effect1_foregroundBlur_130_4303"/>
</filter>
<filter id="filter1_f_130_4303" x="57.294" y="7.55634" width="27.0271" height="34.9069" filterUnits="userSpaceOnUse" color-interpolation-filters="sRGB">
<feFlood flood-opacity="0" result="BackgroundImageFix"/>
<feBlend mode="normal" in="SourceGraphic" in2="BackgroundImageFix" result="shape"/>
<feGaussianBlur stdDeviation="1.5" result="effect1_foregroundBlur_130_4303"/>
</filter>
<filter id="filter2_f_130_4303" x="74.4164" y="7.24219" width="10.2523" height="13.875" filterUnits="userSpaceOnUse" color-interpolation-filters="sRGB">
<feFlood flood-opacity="0" result="BackgroundImageFix"/>
<feBlend mode="normal" in="SourceGraphic" in2="BackgroundImageFix" result="shape"/>
<feGaussianBlur stdDeviation="1.5" result="effect1_foregroundBlur_130_4303"/>
</filter>
<filter id="filter3_f_130_4303" x="8.83826" y="3.67969" width="26.8497" height="32.625" filterUnits="userSpaceOnUse" color-interpolation-filters="sRGB">
<feFlood flood-opacity="0" result="BackgroundImageFix"/>
<feBlend mode="normal" in="SourceGraphic" in2="BackgroundImageFix" result="shape"/>
<feGaussianBlur stdDeviation="3" result="effect1_foregroundBlur_130_4303"/>
</filter>
<filter id="filter4_f_130_4303" x="41.2446" y="54.1681" width="10.9842" height="9.07117" filterUnits="userSpaceOnUse" color-interpolation-filters="sRGB">
<feFlood flood-opacity="0" result="BackgroundImageFix"/>
<feBlend mode="normal" in="SourceGraphic" in2="BackgroundImageFix" result="shape"/>
<feGaussianBlur stdDeviation="0.75" result="effect1_foregroundBlur_130_4303"/>
</filter>
<filter id="filter5_f_130_4303" x="44.7258" y="53.6013" width="8.17031" height="5.24557" filterUnits="userSpaceOnUse" color-interpolation-filters="sRGB">
<feFlood flood-opacity="0" result="BackgroundImageFix"/>
<feBlend mode="normal" in="SourceGraphic" in2="BackgroundImageFix" result="shape"/>
<feGaussianBlur stdDeviation="0.9" result="effect1_foregroundBlur_130_4303"/>
</filter>
<filter id="filter6_f_130_4303" x="71.0549" y="53.9389" width="18.0149" height="12.0384" filterUnits="userSpaceOnUse" color-interpolation-filters="sRGB">
<feFlood flood-opacity="0" result="BackgroundImageFix"/>
<feBlend mode="normal" in="SourceGraphic" in2="BackgroundImageFix" result="shape"/>
<feGaussianBlur stdDeviation="0.75" result="effect1_foregroundBlur_130_4303"/>
</filter>
<filter id="filter7_f_130_4303" x="71.0551" y="65.4705" width="12.3802" height="10.6969" filterUnits="userSpaceOnUse" color-interpolation-filters="sRGB">
<feFlood flood-opacity="0" result="BackgroundImageFix"/>
<feBlend mode="normal" in="SourceGraphic" in2="BackgroundImageFix" result="shape"/>
<feGaussianBlur stdDeviation="0.75" result="effect1_foregroundBlur_130_4303"/>
</filter>
<filter id="filter8_f_130_4303" x="74.7489" y="54.7452" width="15.3143" height="9.33771" filterUnits="userSpaceOnUse" color-interpolation-filters="sRGB">
<feFlood flood-opacity="0" result="BackgroundImageFix"/>
<feBlend mode="normal" in="SourceGraphic" in2="BackgroundImageFix" result="shape"/>
<feGaussianBlur stdDeviation="0.75" result="effect1_foregroundBlur_130_4303"/>
</filter>
<filter id="filter9_f_130_4303" x="86.7737" y="53.7356" width="4.08786" height="4.01208" filterUnits="userSpaceOnUse" color-interpolation-filters="sRGB">
<feFlood flood-opacity="0" result="BackgroundImageFix"/>
<feBlend mode="normal" in="SourceGraphic" in2="BackgroundImageFix" result="shape"/>
<feGaussianBlur stdDeviation="0.75" result="effect1_foregroundBlur_130_4303"/>
</filter>
<filter id="filter10_f_130_4303" x="74.5451" y="65.6973" width="15.3049" height="9.3573" filterUnits="userSpaceOnUse" color-interpolation-filters="sRGB">
<feFlood flood-opacity="0" result="BackgroundImageFix"/>
<feBlend mode="normal" in="SourceGraphic" in2="BackgroundImageFix" result="shape"/>
<feGaussianBlur stdDeviation="0.75" result="effect1_foregroundBlur_130_4303"/>
</filter>
<filter id="filter11_f_130_4303" x="86.5814" y="71.0944" width="4.07993" height="4.02039" filterUnits="userSpaceOnUse" color-interpolation-filters="sRGB">
<feFlood flood-opacity="0" result="BackgroundImageFix"/>
<feBlend mode="normal" in="SourceGraphic" in2="BackgroundImageFix" result="shape"/>
<feGaussianBlur stdDeviation="0.75" result="effect1_foregroundBlur_130_4303"/>
</filter>
<filter id="filter12_f_130_4303" x="6.42523" y="65.7324" width="15.3049" height="9.3573" filterUnits="userSpaceOnUse" color-interpolation-filters="sRGB">
<feFlood flood-opacity="0" result="BackgroundImageFix"/>
<feBlend mode="normal" in="SourceGraphic" in2="BackgroundImageFix" result="shape"/>
<feGaussianBlur stdDeviation="0.75" result="effect1_foregroundBlur_130_4303"/>
</filter>
<filter id="filter13_f_130_4303" x="17.8925" y="65.5109" width="4.09183" height="4.00781" filterUnits="userSpaceOnUse" color-interpolation-filters="sRGB">
<feFlood flood-opacity="0" result="BackgroundImageFix"/>
<feBlend mode="normal" in="SourceGraphic" in2="BackgroundImageFix" result="shape"/>
<feGaussianBlur stdDeviation="0.75" result="effect1_foregroundBlur_130_4303"/>
</filter>
<filter id="filter14_f_130_4303" x="6.63123" y="54.1652" width="15.3409" height="9.28137" filterUnits="userSpaceOnUse" color-interpolation-filters="sRGB">
<feFlood flood-opacity="0" result="BackgroundImageFix"/>
<feBlend mode="normal" in="SourceGraphic" in2="BackgroundImageFix" result="shape"/>
<feGaussianBlur stdDeviation="0.75" result="effect1_foregroundBlur_130_4303"/>
</filter>
<filter id="filter15_f_130_4303" x="18.2482" y="59.4673" width="4.00818" height="4.09155" filterUnits="userSpaceOnUse" color-interpolation-filters="sRGB">
<feFlood flood-opacity="0" result="BackgroundImageFix"/>
<feBlend mode="normal" in="SourceGraphic" in2="BackgroundImageFix" result="shape"/>
<feGaussianBlur stdDeviation="0.75" result="effect1_foregroundBlur_130_4303"/>
</filter>
<filter id="filter16_f_130_4303" x="54.469" y="45.0826" width="7.65189" height="11.8219" filterUnits="userSpaceOnUse" color-interpolation-filters="sRGB">
<feFlood flood-opacity="0" result="BackgroundImageFix"/>
<feBlend mode="normal" in="SourceGraphic" in2="BackgroundImageFix" result="shape"/>
<feGaussianBlur stdDeviation="0.75" result="effect1_foregroundBlur_130_4303"/>
</filter>
<filter id="filter17_f_130_4303" x="30.9903" y="45.0826" width="7.65189" height="11.8219" filterUnits="userSpaceOnUse" color-interpolation-filters="sRGB">
<feFlood flood-opacity="0" result="BackgroundImageFix"/>
<feBlend mode="normal" in="SourceGraphic" in2="BackgroundImageFix" result="shape"/>
<feGaussianBlur stdDeviation="0.75" result="effect1_foregroundBlur_130_4303"/>
</filter>
<filter id="filter18_f_130_4303" x="58.4122" y="45.0826" width="4.41736" height="4.41736" filterUnits="userSpaceOnUse" color-interpolation-filters="sRGB">
<feFlood flood-opacity="0" result="BackgroundImageFix"/>
<feBlend mode="normal" in="SourceGraphic" in2="BackgroundImageFix" result="shape"/>
<feGaussianBlur stdDeviation="0.75" result="effect1_foregroundBlur_130_4303"/>
</filter>
<filter id="filter19_f_130_4303" x="34.587" y="45.0826" width="4.41736" height="4.41736" filterUnits="userSpaceOnUse" color-interpolation-filters="sRGB">
<feFlood flood-opacity="0" result="BackgroundImageFix"/>
<feBlend mode="normal" in="SourceGraphic" in2="BackgroundImageFix" result="shape"/>
<feGaussianBlur stdDeviation="0.75" result="effect1_foregroundBlur_130_4303"/>
</filter>
<filter id="filter20_f_130_4303" x="54.307" y="12.3047" width="37.7553" height="66.5571" filterUnits="userSpaceOnUse" color-interpolation-filters="sRGB">
<feFlood flood-opacity="0" result="BackgroundImageFix"/>
<feBlend mode="normal" in="SourceGraphic" in2="BackgroundImageFix" result="shape"/>
<feGaussianBlur stdDeviation="6" result="effect1_foregroundBlur_130_4303"/>
</filter>
<filter id="filter21_f_130_4303" x="67.2258" y="14.3016" width="14.475" height="21.4125" filterUnits="userSpaceOnUse" color-interpolation-filters="sRGB">
<feFlood flood-opacity="0" result="BackgroundImageFix"/>
<feBlend mode="normal" in="SourceGraphic" in2="BackgroundImageFix" result="shape"/>
<feGaussianBlur stdDeviation="0.9" result="effect1_foregroundBlur_130_4303"/>
</filter>
<filter id="filter22_f_130_4303" x="68.182" y="21.8672" width="13.5938" height="14.2031" filterUnits="userSpaceOnUse" color-interpolation-filters="sRGB">
<feFlood flood-opacity="0" result="BackgroundImageFix"/>
<feBlend mode="normal" in="SourceGraphic" in2="BackgroundImageFix" result="shape"/>
<feGaussianBlur stdDeviation="1.125" result="effect1_foregroundBlur_130_4303"/>
</filter>
<filter id="filter23_f_130_4303" x="14.1696" y="14.9978" width="13.4062" height="20.7231" filterUnits="userSpaceOnUse" color-interpolation-filters="sRGB">
<feFlood flood-opacity="0" result="BackgroundImageFix"/>
<feBlend mode="normal" in="SourceGraphic" in2="BackgroundImageFix" result="shape"/>
<feGaussianBlur stdDeviation="0.75" result="effect1_foregroundBlur_130_4303"/>
</filter>
<filter id="filter24_f_130_4303" x="13.9446" y="15.4547" width="3.45001" height="19.0125" filterUnits="userSpaceOnUse" color-interpolation-filters="sRGB">
<feFlood flood-opacity="0" result="BackgroundImageFix"/>
<feBlend mode="normal" in="SourceGraphic" in2="BackgroundImageFix" result="shape"/>
<feGaussianBlur stdDeviation="0.75" result="effect1_foregroundBlur_130_4303"/>
</filter>
<linearGradient id="paint0_linear_130_4303" x1="23.8909" y1="-2.60903" x2="23.8909" y2="87.2109" gradientUnits="userSpaceOnUse">
<stop offset="0.288159" stop-color="#F2CC26"/>
<stop offset="0.762024" stop-color="#E99E20"/>
<stop offset="0.9925" stop-color="#E3821D"/>
<stop offset="1" stop-color="#E3801D"/>
</linearGradient>
<linearGradient id="paint1_linear_130_4303" x1="26.6508" y1="29.7648" x2="3.77577" y2="29.7648" gradientUnits="userSpaceOnUse">
<stop stop-color="#E99E20" stop-opacity="0"/>
<stop offset="0.9925" stop-color="#E3821D"/>
<stop offset="1" stop-color="#E3801D"/>
</linearGradient>
<linearGradient id="paint2_linear_130_4303" x1="80.2758" y1="29.7648" x2="90.5883" y2="29.7648" gradientUnits="userSpaceOnUse">
<stop stop-color="#E99E20" stop-opacity="0"/>
<stop offset="0.9925" stop-color="#E3821D"/>
<stop offset="1" stop-color="#E3801D"/>
</linearGradient>
<linearGradient id="paint3_linear_130_4303" x1="48.0586" y1="-11.5315" x2="48.0558" y2="87.2109" gradientUnits="userSpaceOnUse">
<stop offset="0.77079" stop-color="#F59639" stop-opacity="0"/>
<stop offset="1" stop-color="#FF63C4"/>
</linearGradient>
<linearGradient id="paint4_linear_130_4303" x1="48.0558" y1="27.3984" x2="48.0558" y2="91.7109" gradientUnits="userSpaceOnUse">
<stop offset="0.854227" stop-color="white" stop-opacity="0"/>
<stop offset="0.985362" stop-color="white"/>
</linearGradient>
<radialGradient id="paint5_radial_130_4303" cx="0" cy="0" r="1" gradientUnits="userSpaceOnUse" gradientTransform="translate(66.4945 6.86715) rotate(55.8501) scale(16.1995 32.0111)">
<stop stop-color="#FFA720"/>
<stop offset="0.921158" stop-color="#FFA720" stop-opacity="0"/>
</radialGradient>
<linearGradient id="paint6_linear_130_4303" x1="65.7243" y1="14.5547" x2="84.4945" y2="35.086" gradientUnits="userSpaceOnUse">
<stop stop-color="#FFA720"/>
<stop offset="1" stop-color="#FFA720" stop-opacity="0"/>
</linearGradient>
<linearGradient id="paint7_linear_130_4303" x1="31.807" y1="25.8516" x2="14.2278" y2="24.211" gradientUnits="userSpaceOnUse">
<stop offset="0.437473" stop-color="#ED8C1B"/>
<stop offset="1" stop-color="#FFB03A"/>
</linearGradient>
<linearGradient id="paint8_linear_130_4303" x1="81.1195" y1="8.88281" x2="79.3313" y2="15.9072" gradientUnits="userSpaceOnUse">
<stop offset="0.28598" stop-color="#FFE792"/>
<stop offset="1" stop-color="#FFDD65" stop-opacity="0"/>
</linearGradient>
<linearGradient id="paint9_linear_130_4303" x1="47.2523" y1="61.0535" x2="45.2367" y2="64.3347" gradientUnits="userSpaceOnUse">
<stop stop-color="#E3900E"/>
<stop offset="1" stop-color="#EA9D26" stop-opacity="0"/>
</linearGradient>
<radialGradient id="paint10_radial_130_4303" cx="0" cy="0" r="1" gradientUnits="userSpaceOnUse" gradientTransform="translate(49.3383 57.5391) rotate(-153.246) scale(6.35187 6.38942)">
<stop stop-color="#EA088B"/>
<stop offset="1" stop-color="#E61E27"/>
</radialGradient>
<linearGradient id="paint11_linear_130_4303" x1="51.6106" y1="56.2241" x2="47.0403" y2="56.2241" gradientUnits="userSpaceOnUse">
<stop stop-color="white" stop-opacity="0.9"/>
<stop offset="1" stop-color="white" stop-opacity="0"/>
</linearGradient>
<linearGradient id="paint12_linear_130_4303" x1="72.8695" y1="63.7081" x2="84.0726" y2="57.961" gradientUnits="userSpaceOnUse">
<stop stop-color="#E88105"/>
<stop offset="1" stop-color="#E37D02" stop-opacity="0"/>
</linearGradient>
<linearGradient id="paint13_linear_130_4303" x1="72.8695" y1="67.7393" x2="84.0727" y2="73.4864" gradientUnits="userSpaceOnUse">
<stop offset="0.286458" stop-color="#DE7D07"/>
<stop offset="0.817708" stop-color="#E37D02" stop-opacity="0"/>
</linearGradient>
<linearGradient id="paint14_linear_130_4303" x1="75.8695" y1="62.8359" x2="88.1131" y2="57.0234" gradientUnits="userSpaceOnUse">
<stop offset="0.15625" stop-color="#D64A38"/>
<stop offset="1" stop-color="#FB7425"/>
</linearGradient>
<linearGradient id="paint15_linear_130_4303" x1="75.2216" y1="68.129" x2="87.4394" y2="73.9955" gradientUnits="userSpaceOnUse">
<stop offset="0.15625" stop-color="#D64A38"/>
<stop offset="1" stop-color="#FB7425"/>
</linearGradient>
<linearGradient id="paint16_linear_130_4303" x1="21.0536" y1="68.1642" x2="8.8358" y2="74.0306" gradientUnits="userSpaceOnUse">
<stop offset="0.15625" stop-color="#D64A38"/>
<stop offset="1" stop-color="#FB7425"/>
</linearGradient>
<linearGradient id="paint17_linear_130_4303" x1="20.4547" y1="62.7876" x2="8.18261" y2="57.0355" gradientUnits="userSpaceOnUse">
<stop offset="0.15625" stop-color="#D64A38"/>
<stop offset="1" stop-color="#FB7425"/>
</linearGradient>
<linearGradient id="paint18_linear_130_4303" x1="48.1399" y1="76.5674" x2="48.1399" y2="63.3011" gradientUnits="userSpaceOnUse">
<stop stop-color="#E61E27"/>
<stop offset="1" stop-color="#672A7A"/>
</linearGradient>
<linearGradient id="paint19_linear_130_4303" x1="62.0648" y1="53.0391" x2="65.0654" y2="63.4219" gradientUnits="userSpaceOnUse">
<stop stop-color="#EC9611"/>
<stop offset="1" stop-color="#EA9D26" stop-opacity="0"/>
</linearGradient>
<linearGradient id="paint20_linear_130_4303" x1="68.6976" y1="48.6328" x2="55.2914" y2="48.6328" gradientUnits="userSpaceOnUse">
<stop stop-color="#432A3D"/>
<stop offset="0.567708" stop-color="#684E61"/>
<stop offset="0.765625" stop-color="#43253D"/>
</linearGradient>
<linearGradient id="paint21_linear_130_4303" x1="60.9633" y1="48.164" x2="60.9633" y2="55.0547" gradientUnits="userSpaceOnUse">
<stop offset="0.326531" stop-color="#43253D" stop-opacity="0"/>
<stop offset="1" stop-color="#43253D"/>
</linearGradient>
<linearGradient id="paint22_linear_130_4303" x1="38.5861" y1="53.0391" x2="41.5867" y2="63.4219" gradientUnits="userSpaceOnUse">
<stop stop-color="#E89311"/>
<stop offset="1" stop-color="#EA9D26" stop-opacity="0"/>
</linearGradient>
<linearGradient id="paint23_linear_130_4303" x1="44.8725" y1="48.6328" x2="31.4662" y2="48.6328" gradientUnits="userSpaceOnUse">
<stop stop-color="#432A3D"/>
<stop offset="0.567708" stop-color="#684E61"/>
<stop offset="0.765625" stop-color="#43253D"/>
</linearGradient>
<linearGradient id="paint24_linear_130_4303" x1="37.1381" y1="48.164" x2="37.1381" y2="55.0547" gradientUnits="userSpaceOnUse">
<stop offset="0.326531" stop-color="#43253D" stop-opacity="0"/>
<stop offset="1" stop-color="#43253D"/>
</linearGradient>
<linearGradient id="paint25_linear_130_4303" x1="70.057" y1="26.5156" x2="68.8673" y2="62.6672" gradientUnits="userSpaceOnUse">
<stop offset="0.548257" stop-color="#FFDD65"/>
<stop offset="1" stop-color="#FFDD65" stop-opacity="0"/>
</linearGradient>
<linearGradient id="paint26_linear_130_4303" x1="79.6195" y1="40.5235" x2="75.8695" y2="30.1172" gradientUnits="userSpaceOnUse">
<stop stop-color="#EF8A47"/>
<stop offset="1" stop-color="#EF8A47" stop-opacity="0"/>
</linearGradient>
<radialGradient id="paint27_radial_130_4303" cx="0" cy="0" r="1" gradientUnits="userSpaceOnUse" gradientTransform="translate(68.6039 17.3203) rotate(55.7389) scale(23.4806 28.1527)">
<stop stop-color="#FFDF70"/>
<stop offset="1" stop-color="#FFDF70" stop-opacity="0"/>
</radialGradient>
<linearGradient id="paint28_linear_130_4303" x1="75.1664" y1="25.4297" x2="75.1664" y2="32.4609" gradientUnits="userSpaceOnUse">
<stop offset="0.432292" stop-color="#FFE7A3"/>
<stop offset="1" stop-color="#FFDF83" stop-opacity="0"/>
</linearGradient>
</defs>
</svg>
