<svg width="72" height="72" viewBox="0 0 72 72" fill="none" xmlns="http://www.w3.org/2000/svg">
<g filter="url(#filter0_iiii_65_1887)">
<path d="M11.4126 10.4291C11.4126 8.44088 13.0244 6.8291 15.0126 6.8291H56.9874C58.9756 6.8291 60.5874 8.44088 60.5874 10.4291V63.8297C60.5874 65.8179 58.9756 67.4297 56.9874 67.4297H15.0126C13.0244 67.4297 11.4126 65.8179 11.4126 63.8297V10.4291Z" fill="url(#paint0_linear_65_1887)"/>
<path d="M11.4126 10.4291C11.4126 8.44088 13.0244 6.8291 15.0126 6.8291H56.9874C58.9756 6.8291 60.5874 8.44088 60.5874 10.4291V63.8297C60.5874 65.8179 58.9756 67.4297 56.9874 67.4297H15.0126C13.0244 67.4297 11.4126 65.8179 11.4126 63.8297V10.4291Z" fill="url(#paint1_radial_65_1887)"/>
</g>
<g filter="url(#filter1_f_65_1887)">
<path d="M17.8901 12.4453C16.3368 12.4453 15.0776 13.7045 15.0776 15.2578V60.6885C15.0776 62.2418 16.3368 63.501 17.8901 63.501H41.9453C42.3928 63.501 42.822 63.3232 43.1385 63.0067L54.7318 51.4134C55.0483 51.0969 55.2261 50.6677 55.2261 50.2202V15.2578C55.2261 13.7045 53.9669 12.4453 52.4136 12.4453H17.8901Z" fill="#CD7D52"/>
</g>
<g filter="url(#filter2_ii_65_1887)">
<path d="M18.7163 11.6016C17.163 11.6016 15.9038 12.8607 15.9038 14.4141V59.8447C15.9038 61.3981 17.163 62.6572 18.7163 62.6572H42.7714C43.219 62.6572 43.6482 62.4794 43.9647 62.163L55.558 50.5697C55.8745 50.2532 56.0522 49.824 56.0522 49.3764V14.4141C56.0522 12.8607 54.7931 11.6016 53.2397 11.6016H18.7163Z" fill="url(#paint2_linear_65_1887)"/>
</g>
<rect x="20.3335" y="27.0352" width="31.3066" height="2.19727" rx="1.09863" fill="#9B96A2"/>
<rect x="20.3335" y="33.8027" width="31.3066" height="2.19727" rx="1.09863" fill="#9B96A2"/>
<rect x="20.3335" y="40.5703" width="31.3066" height="2.19727" rx="1.09863" fill="#9B96A2"/>
<rect x="20.3335" y="47.3379" width="20.1797" height="2.19727" rx="1.09863" fill="#9B96A2"/>
<g filter="url(#filter3_f_65_1887)">
<path d="M55.3667 49.5683H55.3581C55.3581 50.06 55.0831 50.1772 54.8151 50.2051H45.1262C43.9094 50.2051 42.9231 51.1914 42.9231 52.4081V62.0739C42.8574 62.4047 42.4309 62.5932 42.2089 62.6486L42.2007 62.6572H42.3632C42.8015 62.6572 43.2218 62.4832 43.5316 62.1733L54.8828 50.8221C55.1926 50.5122 55.3667 50.092 55.3667 49.6538V49.5683Z" fill="#D0C1E0"/>
</g>
<g filter="url(#filter4_ii_65_1887)">
<path d="M56.0523 49.2891H56.0435C56.0435 49.7913 55.7626 49.911 55.4889 49.9395H45.5933C44.3506 49.9395 43.3433 50.9468 43.3433 52.1895V62.0615C43.2761 62.3993 42.8405 62.5918 42.6138 62.6484L42.6054 62.6572H42.7714C43.219 62.6572 43.6483 62.4795 43.9647 62.163L55.558 50.5697C55.8744 50.2532 56.0523 49.824 56.0523 49.3764V49.2891Z" fill="url(#paint3_linear_65_1887)"/>
</g>
<g filter="url(#filter5_f_65_1887)">
<path d="M24.2534 12.7266C24.2534 12.1052 24.7571 11.6016 25.3784 11.6016H46.0503V17.5781C46.0503 18.1994 45.5466 18.7031 44.9253 18.7031H25.3784C24.7571 18.7031 24.2534 18.1994 24.2534 17.5781V12.7266Z" fill="#CABFD5"/>
</g>
<g filter="url(#filter6_ii_65_1887)">
<path fill-rule="evenodd" clip-rule="evenodd" d="M35.978 4.46484C38.4062 4.46484 40.3816 6.40312 40.4415 8.81686C40.443 8.87898 40.4932 8.92969 40.5554 8.92969H42.6753C45.1605 8.92969 47.1753 10.9444 47.1753 13.4297V16.9541C47.1753 17.5803 46.6677 18.0879 46.0415 18.0879H25.9497C25.3235 18.0879 24.8159 17.5803 24.8159 16.9541V13.4297C24.8159 10.9444 26.8307 8.92969 29.3159 8.92969H31.4007C31.4628 8.92969 31.513 8.87898 31.5146 8.81686C31.5744 6.40312 33.5499 4.46484 35.978 4.46484ZM35.978 10.9512C37.0945 10.9512 37.9995 10.0461 37.9995 8.92969C37.9995 7.81327 37.0945 6.9082 35.978 6.9082C34.8615 6.9082 33.9565 7.81327 33.9565 8.92969C33.9565 10.0461 34.8615 10.9512 35.978 10.9512Z" fill="url(#paint4_linear_65_1887)"/>
</g>
<defs>
<filter id="filter0_iiii_65_1887" x="10.6251" y="6.2666" width="50.5248" height="61.7256" filterUnits="userSpaceOnUse" color-interpolation-filters="sRGB">
<feFlood flood-opacity="0" result="BackgroundImageFix"/>
<feBlend mode="normal" in="SourceGraphic" in2="BackgroundImageFix" result="shape"/>
<feColorMatrix in="SourceAlpha" type="matrix" values="0 0 0 0 0 0 0 0 0 0 0 0 0 0 0 0 0 0 127 0" result="hardAlpha"/>
<feOffset dx="0.5625"/>
<feGaussianBlur stdDeviation="0.5625"/>
<feComposite in2="hardAlpha" operator="arithmetic" k2="-1" k3="1"/>
<feColorMatrix type="matrix" values="0 0 0 0 0.670588 0 0 0 0 0.376471 0 0 0 0 0.278431 0 0 0 1 0"/>
<feBlend mode="normal" in2="shape" result="effect1_innerShadow_65_1887"/>
<feColorMatrix in="SourceAlpha" type="matrix" values="0 0 0 0 0 0 0 0 0 0 0 0 0 0 0 0 0 0 127 0" result="hardAlpha"/>
<feOffset dy="-0.5625"/>
<feGaussianBlur stdDeviation="0.5625"/>
<feComposite in2="hardAlpha" operator="arithmetic" k2="-1" k3="1"/>
<feColorMatrix type="matrix" values="0 0 0 0 0.643137 0 0 0 0 0.329412 0 0 0 0 0.364706 0 0 0 1 0"/>
<feBlend mode="normal" in2="effect1_innerShadow_65_1887" result="effect2_innerShadow_65_1887"/>
<feColorMatrix in="SourceAlpha" type="matrix" values="0 0 0 0 0 0 0 0 0 0 0 0 0 0 0 0 0 0 127 0" result="hardAlpha"/>
<feOffset dx="-0.7875" dy="0.5625"/>
<feGaussianBlur stdDeviation="0.50625"/>
<feComposite in2="hardAlpha" operator="arithmetic" k2="-1" k3="1"/>
<feColorMatrix type="matrix" values="0 0 0 0 1 0 0 0 0 0.760784 0 0 0 0 0.529412 0 0 0 1 0"/>
<feBlend mode="normal" in2="effect2_innerShadow_65_1887" result="effect3_innerShadow_65_1887"/>
<feColorMatrix in="SourceAlpha" type="matrix" values="0 0 0 0 0 0 0 0 0 0 0 0 0 0 0 0 0 0 127 0" result="hardAlpha"/>
<feOffset dx="-0.1125" dy="0.1125"/>
<feGaussianBlur stdDeviation="0.225"/>
<feComposite in2="hardAlpha" operator="arithmetic" k2="-1" k3="1"/>
<feColorMatrix type="matrix" values="0 0 0 0 0.815686 0 0 0 0 0.560784 0 0 0 0 0.396078 0 0 0 1 0"/>
<feBlend mode="normal" in2="effect3_innerShadow_65_1887" result="effect4_innerShadow_65_1887"/>
</filter>
<filter id="filter1_f_65_1887" x="13.9526" y="11.3203" width="42.3984" height="53.3057" filterUnits="userSpaceOnUse" color-interpolation-filters="sRGB">
<feFlood flood-opacity="0" result="BackgroundImageFix"/>
<feBlend mode="normal" in="SourceGraphic" in2="BackgroundImageFix" result="shape"/>
<feGaussianBlur stdDeviation="0.5625" result="effect1_foregroundBlur_65_1887"/>
</filter>
<filter id="filter2_ii_65_1887" x="15.5663" y="11.2641" width="40.8234" height="51.7307" filterUnits="userSpaceOnUse" color-interpolation-filters="sRGB">
<feFlood flood-opacity="0" result="BackgroundImageFix"/>
<feBlend mode="normal" in="SourceGraphic" in2="BackgroundImageFix" result="shape"/>
<feColorMatrix in="SourceAlpha" type="matrix" values="0 0 0 0 0 0 0 0 0 0 0 0 0 0 0 0 0 0 127 0" result="hardAlpha"/>
<feOffset dx="0.3375" dy="-0.3375"/>
<feGaussianBlur stdDeviation="0.3375"/>
<feComposite in2="hardAlpha" operator="arithmetic" k2="-1" k3="1"/>
<feColorMatrix type="matrix" values="0 0 0 0 0.792157 0 0 0 0 0.721569 0 0 0 0 0.862745 0 0 0 1 0"/>
<feBlend mode="normal" in2="shape" result="effect1_innerShadow_65_1887"/>
<feColorMatrix in="SourceAlpha" type="matrix" values="0 0 0 0 0 0 0 0 0 0 0 0 0 0 0 0 0 0 127 0" result="hardAlpha"/>
<feOffset dx="-0.3375" dy="0.3375"/>
<feGaussianBlur stdDeviation="0.3375"/>
<feComposite in2="hardAlpha" operator="arithmetic" k2="-1" k3="1"/>
<feColorMatrix type="matrix" values="0 0 0 0 1 0 0 0 0 1 0 0 0 0 1 0 0 0 1 0"/>
<feBlend mode="normal" in2="effect1_innerShadow_65_1887" result="effect2_innerShadow_65_1887"/>
</filter>
<filter id="filter3_f_65_1887" x="41.6382" y="49.0058" width="14.291" height="14.214" filterUnits="userSpaceOnUse" color-interpolation-filters="sRGB">
<feFlood flood-opacity="0" result="BackgroundImageFix"/>
<feBlend mode="normal" in="SourceGraphic" in2="BackgroundImageFix" result="shape"/>
<feGaussianBlur stdDeviation="0.28125" result="effect1_foregroundBlur_65_1887"/>
</filter>
<filter id="filter4_ii_65_1887" x="42.6054" y="49.2891" width="13.7843" height="13.5932" filterUnits="userSpaceOnUse" color-interpolation-filters="sRGB">
<feFlood flood-opacity="0" result="BackgroundImageFix"/>
<feBlend mode="normal" in="SourceGraphic" in2="BackgroundImageFix" result="shape"/>
<feColorMatrix in="SourceAlpha" type="matrix" values="0 0 0 0 0 0 0 0 0 0 0 0 0 0 0 0 0 0 127 0" result="hardAlpha"/>
<feOffset dx="0.3375"/>
<feGaussianBlur stdDeviation="0.28125"/>
<feComposite in2="hardAlpha" operator="arithmetic" k2="-1" k3="1"/>
<feColorMatrix type="matrix" values="0 0 0 0 0.662745 0 0 0 0 0.611765 0 0 0 0 0.705882 0 0 0 1 0"/>
<feBlend mode="normal" in2="shape" result="effect1_innerShadow_65_1887"/>
<feColorMatrix in="SourceAlpha" type="matrix" values="0 0 0 0 0 0 0 0 0 0 0 0 0 0 0 0 0 0 127 0" result="hardAlpha"/>
<feOffset dy="0.225"/>
<feGaussianBlur stdDeviation="0.16875"/>
<feComposite in2="hardAlpha" operator="arithmetic" k2="-1" k3="1"/>
<feColorMatrix type="matrix" values="0 0 0 0 0.878431 0 0 0 0 0.866667 0 0 0 0 0.890196 0 0 0 1 0"/>
<feBlend mode="normal" in2="effect1_innerShadow_65_1887" result="effect2_innerShadow_65_1887"/>
</filter>
<filter id="filter5_f_65_1887" x="23.3534" y="10.7016" width="23.5969" height="8.90156" filterUnits="userSpaceOnUse" color-interpolation-filters="sRGB">
<feFlood flood-opacity="0" result="BackgroundImageFix"/>
<feBlend mode="normal" in="SourceGraphic" in2="BackgroundImageFix" result="shape"/>
<feGaussianBlur stdDeviation="0.45" result="effect1_foregroundBlur_65_1887"/>
</filter>
<filter id="filter6_ii_65_1887" x="24.5909" y="4.23984" width="22.8094" height="14.073" filterUnits="userSpaceOnUse" color-interpolation-filters="sRGB">
<feFlood flood-opacity="0" result="BackgroundImageFix"/>
<feBlend mode="normal" in="SourceGraphic" in2="BackgroundImageFix" result="shape"/>
<feColorMatrix in="SourceAlpha" type="matrix" values="0 0 0 0 0 0 0 0 0 0 0 0 0 0 0 0 0 0 127 0" result="hardAlpha"/>
<feOffset dx="0.225" dy="-0.225"/>
<feGaussianBlur stdDeviation="0.225"/>
<feComposite in2="hardAlpha" operator="arithmetic" k2="-1" k3="1"/>
<feColorMatrix type="matrix" values="0 0 0 0 0.556863 0 0 0 0 0.501961 0 0 0 0 0.572549 0 0 0 1 0"/>
<feBlend mode="normal" in2="shape" result="effect1_innerShadow_65_1887"/>
<feColorMatrix in="SourceAlpha" type="matrix" values="0 0 0 0 0 0 0 0 0 0 0 0 0 0 0 0 0 0 127 0" result="hardAlpha"/>
<feOffset dx="-0.225" dy="0.225"/>
<feGaussianBlur stdDeviation="0.1125"/>
<feComposite in2="hardAlpha" operator="arithmetic" k2="-1" k3="1"/>
<feColorMatrix type="matrix" values="0 0 0 0 0.67451 0 0 0 0 0.65098 0 0 0 0 0.670588 0 0 0 1 0"/>
<feBlend mode="normal" in2="effect1_innerShadow_65_1887" result="effect2_innerShadow_65_1887"/>
</filter>
<linearGradient id="paint0_linear_65_1887" x1="36" y1="6.8291" x2="36" y2="67.4297" gradientUnits="userSpaceOnUse">
<stop stop-color="#E8A874"/>
<stop offset="1" stop-color="#DB925D"/>
</linearGradient>
<radialGradient id="paint1_radial_65_1887" cx="0" cy="0" r="1" gradientUnits="userSpaceOnUse" gradientTransform="translate(35.2925 11.9531) rotate(-90) scale(5.625 4.56445)">
<stop stop-color="#D79769"/>
<stop offset="1" stop-color="#D79769" stop-opacity="0"/>
</radialGradient>
<linearGradient id="paint2_linear_65_1887" x1="35.978" y1="11.6016" x2="35.978" y2="62.6572" gradientUnits="userSpaceOnUse">
<stop stop-color="#EAE2F4"/>
<stop offset="1" stop-color="#E4DAEF"/>
</linearGradient>
<linearGradient id="paint3_linear_65_1887" x1="43.5191" y1="51.0469" x2="48.6519" y2="56.6016" gradientUnits="userSpaceOnUse">
<stop stop-color="#D6CDE1"/>
<stop offset="1" stop-color="#C6BAD2"/>
</linearGradient>
<linearGradient id="paint4_linear_65_1887" x1="42.1128" y1="8.50781" x2="35.2222" y2="18.4922" gradientUnits="userSpaceOnUse">
<stop stop-color="#948A94"/>
<stop offset="1" stop-color="#8D8291"/>
</linearGradient>
</defs>
</svg>
