<svg width="28" height="28" viewBox="0 0 28 28" fill="none" xmlns="http://www.w3.org/2000/svg">
<path d="M12.3369 6.13206L13.0564 6.31912C13.6752 6.47999 14.3248 6.47999 14.9436 6.31912L15.6631 6.13206C17.9227 5.54457 20.2608 5.31654 22.5914 5.45636C22.9613 5.47855 23.25 5.78504 23.25 6.15565V18.501C23.25 18.8764 22.9338 19.1742 22.5591 19.1517C20.1522 19.0073 17.7376 19.2428 15.404 19.8495L14.5662 20.0674C14.1949 20.1639 13.8051 20.1639 13.4338 20.0674L12.596 19.8495C10.2624 19.2428 7.84775 19.0073 5.44088 19.1517C5.0662 19.1742 4.75 18.8764 4.75 18.501V6.15565C4.75 5.78504 5.03866 5.47855 5.4086 5.45636C7.73919 5.31654 10.0773 5.54457 12.3369 6.13206Z" stroke="white" stroke-width="1.5"/>
<path d="M14 6.16614V20.1663" stroke="white" stroke-width="1.5"/>
<path d="M5.5 22.107C8.00378 21.6897 10.9719 22.475 12.9511 23.0369C13.6382 23.2319 14.3618 23.2319 15.0489 23.0369C17.0281 22.475 19.9962 21.6897 22.5 22.107" stroke="white" stroke-width="1.5" stroke-linecap="round"/>
</svg>
